<svg xmlns="http://www.w3.org/2000/svg" viewBox="0 0 750 500"><g id="freepik--background-simple--inject-71"><path d="M560.85,100.32S501,31.56,443.31,20.07s-141.92,8.83-173.63,50S164.91,93.3,101.85,127.76s-96.51,101-81.13,160.55,55,72.06,75,98.62S202.6,488.16,311,478.11s125.36-44.51,182.26-35.18,144.59,38.77,195.34-23,7.18-61.58,27.18-121.16,16.39-108.66-9-148.86S580.07,119.7,560.85,100.32Z" style="fill:#4FC671"></path><path d="M560.85,100.32S501,31.56,443.31,20.07s-141.92,8.83-173.63,50S164.91,93.3,101.85,127.76s-96.51,101-81.13,160.55,55,72.06,75,98.62S202.6,488.16,311,478.11s125.36-44.51,182.26-35.18,144.59,38.77,195.34-23,7.18-61.58,27.18-121.16,16.39-108.66-9-148.86S580.07,119.7,560.85,100.32Z" style="fill:#fff;opacity:0.7000000000000001"></path></g><g id="freepik--Clouds--inject-71"><path d="M480.6,109.66H313.48a.5.5,0,0,1-.17-1l15.1-5.75c.38-1.1,2.24-5.58,8.15-9.52,4.2-2.8,8.37-.82,11.42.62,1.72.81,3.21,1.52,3.83.9a13.1,13.1,0,0,0,1.56-3.86c1.66-5.29,4.46-14.15,13.32-15.26,7-.88,12.33,3.93,16.2,7.44,2.65,2.41,4.74,4.32,6.26,3.56,1.07-.53,2.58-2.93,4.32-5.71,4.89-7.77,13-20.77,26.69-17,17.37,4.86,20.47,19.06,20.77,20.69.55.63,3.69,4,6.73,3.38A12.59,12.59,0,0,0,450.57,87c3.7-1.89,9.3-4.74,17.86-.18,11.05,5.9,12.6,21.63,12.66,22.29a.51.51,0,0,1-.12.39A.52.52,0,0,1,480.6,109.66Zm-164.4-1H480c-.38-2.84-2.62-15.91-12.07-21-8.1-4.32-13.21-1.72-16.94.18a13.46,13.46,0,0,1-3.16,1.33c-3.9.77-7.63-3.64-7.78-3.82a.47.47,0,0,1-.11-.25c0-.15-2.38-15.07-20.08-20-12.91-3.61-20.53,8.5-25.57,16.52-2,3.14-3.4,5.41-4.72,6.07-2.13,1.07-4.45-1-7.39-3.71-3.92-3.57-8.82-8-15.39-7.18-8.23,1-10.8,9.17-12.5,14.56-.66,2.09-1.13,3.59-1.81,4.27-1.11,1.11-2.89.27-5-.71-3-1.42-6.71-3.18-10.44-.69-6.31,4.21-7.81,9.16-7.82,9.21a.52.52,0,0,1-.3.33Z" style="fill:#263238"></path><path d="M166.37,71.87H56.82a.5.5,0,0,1-.49-.41.49.49,0,0,1,.31-.56l9.83-3.74a13.49,13.49,0,0,1,5.38-6.26c2.84-1.89,5.62-.57,7.66.4,1,.48,2,.94,2.31.62a8.7,8.7,0,0,0,1-2.46c1.11-3.51,3-9.38,8.88-10.12,4.69-.59,8.19,2.6,10.75,4.92,1.62,1.48,3,2.75,3.92,2.31.65-.33,1.63-1.88,2.76-3.68,3.23-5.14,8.63-13.72,17.69-11.19,11.31,3.17,13.47,12.35,13.72,13.65.43.47,2.39,2.5,4.22,2.13a8.11,8.11,0,0,0,1.86-.79c2.46-1.25,6.18-3.15,11.87-.12,7.33,3.91,8.36,14.31,8.4,14.75a.52.52,0,0,1-.13.38A.5.5,0,0,1,166.37,71.87Zm-106.83-1H165.8c-.32-2.18-1.87-10.25-7.8-13.41-5.23-2.79-8.53-1.11-10.94.12a9.31,9.31,0,0,1-2.12.88c-2.65.53-5.16-2.43-5.27-2.56a.57.57,0,0,1-.11-.25c0-.1-1.55-9.77-13-13-8.35-2.34-13.3,5.54-16.57,10.75-1.31,2.08-2.26,3.59-3.17,4-1.5.75-3.06-.66-5-2.46-2.55-2.31-5.72-5.2-10-4.66-5.28.66-7,5.93-8,9.42a8.11,8.11,0,0,1-1.22,2.87c-.82.82-2,.24-3.45-.43-1.92-.91-4.31-2-6.68-.46-4.08,2.72-5.05,5.91-5.05,5.94A.53.53,0,0,1,67,68Z" style="fill:#263238"></path><path d="M660.72,71.87h-79a.51.51,0,0,1-.49-.41.5.5,0,0,1,.32-.56l7-2.68a10.05,10.05,0,0,1,3.92-4.52c2.11-1.4,4.25-.39,5.66.28.57.27,1.35.64,1.51.48a6.71,6.71,0,0,0,.67-1.72c.81-2.57,2.16-6.85,6.52-7.4,3.47-.43,6,1.89,7.87,3.58,1.09,1,2.11,1.93,2.67,1.65A10,10,0,0,0,619.3,58c2.35-3.73,6.28-10,12.91-8.13,8.14,2.28,9.78,8.83,10,9.92.5.56,1.78,1.68,2.89,1.46a5.67,5.67,0,0,0,1.3-.56,8.3,8.3,0,0,1,8.69-.08c5.36,2.86,6.1,10.43,6.13,10.75a.51.51,0,0,1-.5.55Zm-76.31-1h75.74c-.27-1.75-1.44-7.24-5.53-9.42a7.33,7.33,0,0,0-7.76.09,6.17,6.17,0,0,1-1.57.65c-2,.4-3.85-1.8-3.93-1.89a.47.47,0,0,1-.11-.25c0-.28-1.11-7-9.3-9.25-5.93-1.66-9.46,4-11.8,7.69-1,1.53-1.65,2.63-2.34,3-1.17.58-2.33-.46-3.79-1.8C612.2,58,610,56,607,56.33c-3.73.47-4.91,4.22-5.69,6.71a6,6,0,0,1-.92,2.12c-.66.66-1.63.21-2.65-.28-1.35-.64-3-1.44-4.68-.35a8.86,8.86,0,0,0-3.59,4.21.5.5,0,0,1-.3.33Z" style="fill:#263238"></path></g><g id="freepik--Mountains--inject-71"><path d="M224,51.79l5.15,36.07L220.56,105s4.29,16.32,5.15,18.9,12,17.17,12,12-4.29-38.65,3.44-35.21,12.88,31.78,12.88,31.78,24.05,99.63,25.77,104.78-.86,12.89-2.58,16.32-18.85,40.86-15.42,34.85,136.53-69.2,136.53-69.2l-111.24-114S232.58,51.79,224,51.79Z" style="opacity:0.21"></path><path d="M606.21,93s-.06,11.53,2.83,15.39,20.23,30.83,21.19,40.46-12.52-1.93-15.41-1-8.67,5.78-5.78,11.56,32.75,56.85,33.72,59.74,11.56,27.94,16.38,27.94,13.48-4.82,11.56-12.53S663,202.83,663,202.83l28.9,28.9s19.27,13.49,25.05,13.49,12.53,2.86,9.59-6a109.15,109.15,0,0,0-7.35-16.67l2.45-7.35-85.3-95.1S614.81,93.36,606.21,93Z" style="opacity:0.21"></path><path d="M739.34,235.24a.49.49,0,0,1-.38-.18c-1.21-1.39-121.12-139.88-132.82-141.55l-.25,0c-11.18,0-140.12,82.33-207.27,126.2a.48.48,0,0,1-.63-.07c-55.33-58-162.62-167.34-173.87-167.34H224c-13.44.84-210.75,146.17-212.74,147.63a.5.5,0,0,1-.6-.8c8.15-6,199.55-147,213.28-147.83h.11c14.35,0,164.54,157.06,174.35,167.34C410.31,210.87,591.74,92.5,606,92.5l.28,0c12.07,1.73,128.49,136.17,133.44,141.89a.5.5,0,0,1-.05.7A.5.5,0,0,1,739.34,235.24Z" style="fill:#263238"></path></g><g id="freepik--trees-3--inject-71"><path d="M271.65,183c-47.77.08-86.47,36.86-86.47,82.22,0,.23,0,.45,0,.68a44.37,44.37,0,0,0,45.4,43.89,65,65,0,0,1,12,.76,29.91,29.91,0,0,1,18.8,11.65,12.49,12.49,0,0,0,9.81,5h.91a12.49,12.49,0,0,0,9.8-5,29.91,29.91,0,0,1,18.8-11.65,65.06,65.06,0,0,1,12-.76,44.39,44.39,0,0,0,45.41-43.89v-.68C358.12,219.84,319.42,183.06,271.65,183Z" style="fill:#4FC671"></path><path d="M271.65,183c-47.77.08-86.47,36.86-86.47,82.22,0,.23,0,.45,0,.68a44.37,44.37,0,0,0,45.4,43.89,65,65,0,0,1,12,.76,29.91,29.91,0,0,1,18.8,11.65,12.49,12.49,0,0,0,9.81,5h.91a12.49,12.49,0,0,0,9.8-5,29.91,29.91,0,0,1,18.8-11.65,65.06,65.06,0,0,1,12-.76,44.39,44.39,0,0,0,45.41-43.89v-.68C358.12,219.84,319.42,183.06,271.65,183Z" style="fill:#fff;opacity:0.21"></path><polygon points="301.56 284.02 282.44 288.16 305.26 259.72 274.09 288.78 273.9 290.79 272.5 260.25 270.3 308.49 239.57 279.84 262.39 308.28 243.27 304.14 267.45 314.57 269.89 317.61 265.64 438 279.37 438 274.24 298.37 277.38 294.45 301.56 284.02" style="fill:#b0b0b0"></polygon><path d="M254.46,256s-2-5.57-6.13-7.52a34.21,34.21,0,0,0-7-2.51S243.6,257.4,254.46,256Z" style="fill:#fff"></path><path d="M223.73,234.14s-1.95-5.57-6.13-7.52a34.39,34.39,0,0,0-7-2.51S212.86,235.53,223.73,234.14Z" style="fill:#fff"></path><path d="M259.51,241.2s-.32-5.89-3.79-8.93a34.13,34.13,0,0,0-6-4.35S248.69,239.51,259.51,241.2Z" style="fill:#fff"></path><path d="M305.93,286.33s-3.73-4.57-8.33-5a34,34,0,0,0-7.4,0S296.2,291.35,305.93,286.33Z" style="fill:#fff"></path><path d="M309.48,300.81s-3.74-4.57-8.33-5a34.3,34.3,0,0,0-7.4,0S299.75,305.84,309.48,300.81Z" style="fill:#fff"></path><path d="M233,284.93s3.74-4.56,8.33-5a34.3,34.3,0,0,1,7.4,0S242.72,290,233,284.93Z" style="fill:#fff"></path><path d="M217.62,297.94s3.74-4.57,8.33-5a34,34,0,0,1,7.4,0S227.35,303,217.62,297.94Z" style="fill:#fff"></path><path d="M243.07,236.19s-.32-5.9-3.79-8.93a34.13,34.13,0,0,0-6-4.35S232.25,234.5,243.07,236.19Z" style="fill:#fff"></path><path d="M297.67,239.53s.32-5.89,3.79-8.93a34.13,34.13,0,0,1,6-4.35S308.49,237.84,297.67,239.53Z" style="fill:#fff"></path><path d="M270.49,232s3.4-4.83,2.56-9.36a33.67,33.67,0,0,0-2-7.12S263.05,223.91,270.49,232Z" style="fill:#fff"></path><path d="M274.28,254.14s.55-5.88-2.43-9.4a34.27,34.27,0,0,0-5.28-5.18S263.83,250.87,274.28,254.14Z" style="fill:#fff"></path><path d="M260.26,227.29s1.76-5.63-.43-9.69a34.06,34.06,0,0,0-4.08-6.17S250.71,221.92,260.26,227.29Z" style="fill:#fff"></path><path d="M245.69,217.53s.72-5.86-2.17-9.45a33.76,33.76,0,0,0-5.14-5.33S235.33,214,245.69,217.53Z" style="fill:#fff"></path><path d="M264.72,271s1.76-5.63-.43-9.69a34.36,34.36,0,0,0-4.09-6.17S255.17,265.65,264.72,271Z" style="fill:#fff"></path><path d="M277.92,264.41s5-3.16,5.94-7.67a34.74,34.74,0,0,0,.87-7.35S274.11,254.14,277.92,264.41Z" style="fill:#fff"></path><path d="M278.51,227.29s-1.76-5.63.43-9.69a34.36,34.36,0,0,1,4.09-6.17S288.06,221.92,278.51,227.29Z" style="fill:#fff"></path><path d="M274.52,207.3s-3.2-5-2.18-9.45a34,34,0,0,1,2.29-7S282.28,199.58,274.52,207.3Z" style="fill:#fff"></path><path d="M285.46,241.45s5-3.18,5.91-7.69a34.07,34.07,0,0,0,.84-7.35S281.61,231.2,285.46,241.45Z" style="fill:#fff"></path><path d="M301.42,216s5-3.18,5.91-7.7a34,34,0,0,0,.84-7.35S297.57,205.78,301.42,216Z" style="fill:#fff"></path><path d="M298.88,256.88s5.71-1.48,8-5.48a34.58,34.58,0,0,0,3.08-6.74S298.39,245.94,298.88,256.88Z" style="fill:#fff"></path><path d="M320.16,241.81s5.71-1.48,8-5.49a33.88,33.88,0,0,0,3.07-6.73S319.67,230.87,320.16,241.81Z" style="fill:#fff"></path><path d="M300.16,270.66s5.36,2.47,9.67.82a33.94,33.94,0,0,0,6.64-3.26S306.71,261.88,300.16,270.66Z" style="fill:#fff"></path><path d="M323.48,271.67s4.07,4.28,8.68,4.33a34.12,34.12,0,0,0,7.38-.58S332.81,265.93,323.48,271.67Z" style="fill:#fff"></path><path d="M314.39,283.23s3.21,4.94,7.74,5.85a34.3,34.3,0,0,0,7.36.78S324.61,279.29,314.39,283.23Z" style="fill:#fff"></path><path d="M307.68,258.12s5.36,2.48,9.67.83a34.65,34.65,0,0,0,6.64-3.26S314.23,249.35,307.68,258.12Z" style="fill:#fff"></path><path d="M330.14,254.87s5.36,2.47,9.67.83a34.65,34.65,0,0,0,6.64-3.26S336.69,246.1,330.14,254.87Z" style="fill:#fff"></path><path d="M232.65,266.13s3.6,4.68,8.18,5.22a33.91,33.91,0,0,0,7.39.19S242.52,261.4,232.65,266.13Z" style="fill:#fff"></path><path d="M221,250s3.6,4.67,8.18,5.21a34,34,0,0,0,7.4.19S230.82,245.24,221,250Z" style="fill:#fff"></path><path d="M194.67,255.22s4.9,3.29,9.41,2.35a34.78,34.78,0,0,0,7.08-2.17S202.52,247.59,194.67,255.22Z" style="fill:#fff"></path><path d="M205.91,273.45s4.47,3.85,9.07,3.45a34.53,34.53,0,0,0,7.28-1.32S214.61,266.81,205.91,273.45Z" style="fill:#fff"></path><path d="M467.93,83.49c-66.41.11-120.21,51.23-120.21,114.29,0,.32,0,.63,0,.95a61.69,61.69,0,0,0,63.12,61,91,91,0,0,1,16.68,1.05c11.37,1.84,20.17,8.5,26.13,16.21a17.42,17.42,0,0,0,13.63,7h1.27a17.4,17.4,0,0,0,13.63-7c6-7.71,14.77-14.37,26.13-16.21A91,91,0,0,1,525,259.74a61.7,61.7,0,0,0,63.12-61v-.95C588.13,134.72,534.33,83.6,467.93,83.49Z" style="fill:#4FC671"></path><path d="M467.93,83.49c-66.41.11-120.21,51.23-120.21,114.29,0,.32,0,.63,0,.95a61.69,61.69,0,0,0,63.12,61,91,91,0,0,1,16.68,1.05c11.37,1.84,20.17,8.5,26.13,16.21a17.42,17.42,0,0,0,13.63,7h1.27a17.4,17.4,0,0,0,13.63-7c6-7.71,14.77-14.37,26.13-16.21A91,91,0,0,1,525,259.74a61.7,61.7,0,0,0,63.12-61v-.95C588.13,134.72,534.33,83.6,467.93,83.49Z" style="fill:#fff;opacity:0.21"></path><polygon points="509.51 223.95 482.92 229.7 514.65 190.17 471.32 230.56 471.05 233.36 469.11 190.9 466.05 257.96 423.33 218.13 455.06 257.67 428.47 251.92 462.08 266.42 465.48 270.65 459.57 438 478.66 438 471.53 243.89 475.89 238.45 509.51 223.95" style="fill:#b0b0b0"></polygon><path d="M444,185s-2.71-7.74-8.52-10.45a47.94,47.94,0,0,0-9.68-3.49S428.93,186.94,444,185Z" style="fill:#fff"></path><path d="M401.3,154.6s-2.71-7.74-8.52-10.45a47.7,47.7,0,0,0-9.68-3.49S386.2,156.54,401.3,154.6Z" style="fill:#fff"></path><path d="M451.05,164.42s-.45-8.19-5.27-12.41a47.53,47.53,0,0,0-8.33-6S436,162.07,451.05,164.42Z" style="fill:#fff"></path><path d="M515.59,227.16s-5.2-6.35-11.59-6.91a47.87,47.87,0,0,0-10.28,0S502.06,234.14,515.59,227.16Z" style="fill:#fff"></path><path d="M520.52,247.29s-5.2-6.35-11.59-6.91a47.87,47.87,0,0,0-10.28,0S507,254.27,520.52,247.29Z" style="fill:#fff"></path><path d="M414.18,225.22s5.2-6.35,11.58-6.91a47.94,47.94,0,0,1,10.29,0S427.71,232.2,414.18,225.22Z" style="fill:#fff"></path><path d="M392.82,243.29s5.19-6.35,11.58-6.91a47.48,47.48,0,0,1,10.29,0S406.34,250.28,392.82,243.29Z" style="fill:#fff"></path><path d="M428.2,157.45s-.45-8.19-5.27-12.41a47.09,47.09,0,0,0-8.33-6S413.16,155.1,428.2,157.45Z" style="fill:#fff"></path><path d="M504.1,162.1s.44-8.2,5.27-12.42a47.49,47.49,0,0,1,8.32-6S519.14,159.75,504.1,162.1Z" style="fill:#fff"></path><path d="M466.31,151.56s4.73-6.71,3.57-13a47.58,47.58,0,0,0-2.79-9.9S456,140.39,466.31,151.56Z" style="fill:#fff"></path><path d="M471.58,182.4s.77-8.17-3.38-13.05a47.79,47.79,0,0,0-7.34-7.21S457.05,177.86,471.58,182.4Z" style="fill:#fff"></path><path d="M452.09,145.08s2.45-7.83-.59-13.47a48,48,0,0,0-5.68-8.58S438.82,137.62,452.09,145.08Z" style="fill:#fff"></path><path d="M431.84,131.52s1-8.15-3-13.15a47.28,47.28,0,0,0-7.14-7.4S417.44,126.58,431.84,131.52Z" style="fill:#fff"></path><path d="M458.29,205.88s2.45-7.83-.59-13.47a47.15,47.15,0,0,0-5.69-8.58S445,198.41,458.29,205.88Z" style="fill:#fff"></path><path d="M476.64,196.68s6.93-4.39,8.26-10.66a47.07,47.07,0,0,0,1.2-10.22S471.34,182.41,476.64,196.68Z" style="fill:#fff"></path><path d="M477.47,145.08s-2.45-7.83.59-13.47a48,48,0,0,1,5.68-8.58S490.74,137.62,477.47,145.08Z" style="fill:#fff"></path><path d="M471.91,117.29s-4.45-6.89-3-13.14a47.92,47.92,0,0,1,3.19-9.78S482.71,106.56,471.91,117.29Z" style="fill:#fff"></path><path d="M487.13,164.77s6.91-4.42,8.21-10.69a47.27,47.27,0,0,0,1.17-10.23S481.77,150.52,487.13,164.77Z" style="fill:#fff"></path><path d="M509.31,129.44s6.92-4.42,8.22-10.7a48,48,0,0,0,1.17-10.22S504,115.19,509.31,129.44Z" style="fill:#fff"></path><path d="M505.77,186.22s8-2.06,11.13-7.63a47.5,47.5,0,0,0,4.27-9.35S505.1,171,505.77,186.22Z" style="fill:#fff"></path><path d="M535.35,165.26s7.95-2.06,11.13-7.62a47.9,47.9,0,0,0,4.28-9.36S534.68,150.05,535.35,165.26Z" style="fill:#fff"></path><path d="M507.56,205.37s7.45,3.44,13.43,1.15a47.4,47.4,0,0,0,9.24-4.54S516.67,193.17,507.56,205.37Z" style="fill:#fff"></path><path d="M540,206.78s5.66,5.95,12.06,6A47.53,47.53,0,0,0,562.3,212S552.94,198.8,540,206.78Z" style="fill:#fff"></path><path d="M527.34,222.84s4.47,6.88,10.76,8.13a47.24,47.24,0,0,0,10.23,1.09S541.55,217.37,527.34,222.84Z" style="fill:#fff"></path><path d="M518,188s7.45,3.43,13.44,1.14a47.47,47.47,0,0,0,9.23-4.53S527.12,175.75,518,188Z" style="fill:#fff"></path><path d="M549.24,183.43s7.45,3.43,13.43,1.14a47.79,47.79,0,0,0,9.24-4.53S558.34,171.23,549.24,183.43Z" style="fill:#fff"></path><path d="M413.7,199.08s5,6.5,11.38,7.25a47.57,47.57,0,0,0,10.28.27S427.43,192.5,413.7,199.08Z" style="fill:#fff"></path><path d="M397.44,176.62s5,6.5,11.37,7.25a47.66,47.66,0,0,0,10.29.27S411.17,170,397.44,176.62Z" style="fill:#fff"></path><path d="M360.91,183.91s6.81,4.58,13.08,3.26a47.48,47.48,0,0,0,9.84-3S371.83,173.31,360.91,183.91Z" style="fill:#fff"></path><path d="M376.53,209.25s6.22,5.35,12.61,4.79a47.93,47.93,0,0,0,10.12-1.82S388.64,200,376.53,209.25Z" style="fill:#fff"></path></g><g id="freepik--tree-2--inject-71"><path d="M540.91,437.2a.5.5,0,0,1-.5-.5V382.77a.5.5,0,0,1,1,0V436.7A.5.5,0,0,1,540.91,437.2Z" style="fill:#263238"></path><path d="M540.39,412.16A.49.49,0,0,1,540,412l-21.48-23.48a.5.5,0,1,1,.73-.67l21.48,23.47a.5.5,0,0,1,0,.71A.46.46,0,0,1,540.39,412.16Z" style="fill:#263238"></path><path d="M541.05,389.57a.51.51,0,0,1-.36-.15.5.5,0,0,1,0-.71L555.1,375a.5.5,0,1,1,.69.72l-14.4,13.73A.45.45,0,0,1,541.05,389.57Z" style="fill:#263238"></path><path d="M528.65,399.54a.5.5,0,0,1-.5-.46L527,384.9a.5.5,0,0,1,1-.08L529.15,399a.52.52,0,0,1-.46.54Z" style="fill:#263238"></path><path d="M540.83,426.11a.5.5,0,0,1-.25-.93L557,415.66a.5.5,0,0,1,.5.86L541.08,426A.45.45,0,0,1,540.83,426.11Z" style="fill:#263238"></path><path d="M560.54,383.81h0l-13.06-.44a.5.5,0,0,1-.49-.52.53.53,0,0,1,.52-.48l13.07.44a.5.5,0,0,1,0,1Z" style="fill:#263238"></path><path d="M537.33,376.13c0,4.52,3.73,8.19,3.73,8.19s3.74-3.67,3.74-8.19-3.74-8.19-3.74-8.19S537.33,371.61,537.33,376.13Z" style="fill:#4FC671"></path><path d="M556.83,368.9c-3.53,2.82-4.06,8-4.06,8s5.2.63,8.73-2.2,4.06-8,4.06-8S560.36,366.07,556.83,368.9Z" style="fill:#4FC671"></path><path d="M562.89,379.43c-4.52,0-8.16,3.79-8.16,3.79s3.69,3.71,8.21,3.68,8.17-3.79,8.17-3.79S567.41,379.4,562.89,379.43Z" style="fill:#4FC671"></path><path d="M523.4,384.49c.46,4.49,4.56,7.76,4.56,7.76s3.34-4,2.88-8.53-4.56-7.76-4.56-7.76S522.94,380,523.4,384.49Z" style="fill:#4FC671"></path><path d="M548.08,407.47c-2.3,3.9-7.38,5.16-7.38,5.16s-1.35-5.06.95-9,7.38-5.15,7.38-5.15S550.38,403.58,548.08,407.47Z" style="fill:#4FC671"></path><path d="M533.47,384.62c2.29,3.9,7.38,5.16,7.38,5.16s1.35-5.06-1-9-7.38-5.15-7.38-5.15S531.17,380.73,533.47,384.62Z" style="fill:#4FC671"></path><path d="M557.7,410.26c-3.71,2.58-4.59,7.75-4.59,7.75s5.14,1,8.86-1.61,4.59-7.74,4.59-7.74S561.41,407.68,557.7,410.26Z" style="fill:#4FC671"></path><path d="M512.4,386.46c3,3.37,8.24,3.62,8.24,3.62s.35-5.22-2.66-8.6-8.24-3.63-8.24-3.63S509.39,383.08,512.4,386.46Z" style="fill:#4FC671"></path><path d="M563.16,437.6s-16.25-6.5-22.75-6.5-21.93,6.9-21.93,6.9Z" style="fill:#263238"></path></g><g id="freepik--tree-1--inject-71"><path d="M186.14,437.2a.5.5,0,0,1-.5-.5V359.82a.5.5,0,0,1,1,0V436.7A.5.5,0,0,1,186.14,437.2Z" style="fill:#263238"></path><path d="M186.66,412.16a.46.46,0,0,1-.33-.13.5.5,0,0,1,0-.71l21.48-23.47a.48.48,0,0,1,.7,0,.49.49,0,0,1,0,.7L187,412A.49.49,0,0,1,186.66,412.16Z" style="fill:#263238"></path><path d="M186,389.57a.49.49,0,0,1-.35-.14L171.26,375.7a.49.49,0,0,1,0-.7.5.5,0,0,1,.71,0l14.4,13.73a.51.51,0,0,1,0,.71A.51.51,0,0,1,186,389.57Z" style="fill:#263238"></path><path d="M198.4,399.54h0a.52.52,0,0,1-.46-.54L199,384.82a.48.48,0,0,1,.54-.45.5.5,0,0,1,.46.53l-1.11,14.18A.5.5,0,0,1,198.4,399.54Z" style="fill:#263238"></path><path d="M186.22,426.11A.47.47,0,0,1,186,426l-16.39-9.52a.5.5,0,0,1,.5-.86l16.39,9.52a.5.5,0,0,1-.25.93Z" style="fill:#263238"></path><path d="M166.51,383.81a.5.5,0,0,1,0-1l13.07-.44a.52.52,0,0,1,.52.48.5.5,0,0,1-.49.52l-13.06.44Z" style="fill:#263238"></path><path d="M189.72,353.18c0,4.52-3.73,8.19-3.73,8.19s-3.74-3.67-3.74-8.19S186,345,186,345,189.72,348.65,189.72,353.18Z" style="fill:#4FC671"></path><path d="M170.22,368.9c3.53,2.82,4.06,8,4.06,8s-5.2.63-8.73-2.2-4.06-8-4.06-8S166.69,366.07,170.22,368.9Z" style="fill:#4FC671"></path><path d="M164.16,379.43c4.52,0,8.16,3.79,8.16,3.79s-3.69,3.71-8.21,3.68-8.17-3.79-8.17-3.79S159.64,379.4,164.16,379.43Z" style="fill:#4FC671"></path><path d="M203.65,384.49c-.46,4.49-4.56,7.76-4.56,7.76s-3.34-4-2.88-8.53,4.56-7.76,4.56-7.76S204.11,380,203.65,384.49Z" style="fill:#4FC671"></path><path d="M179,407.47c2.3,3.9,7.38,5.16,7.38,5.16s1.35-5.06-.95-9-7.38-5.15-7.38-5.15S176.67,403.58,179,407.47Z" style="fill:#4FC671"></path><path d="M193.59,384.62c-2.3,3.9-7.39,5.16-7.39,5.16s-1.35-5.06,1-9,7.38-5.15,7.38-5.15S195.89,380.73,193.59,384.62Z" style="fill:#4FC671"></path><path d="M169.35,410.26c3.71,2.58,4.59,7.75,4.59,7.75s-5.14,1-8.86-1.61-4.59-7.74-4.59-7.74S165.64,407.68,169.35,410.26Z" style="fill:#4FC671"></path><path d="M214.65,386.46c-3,3.37-8.24,3.62-8.24,3.62s-.35-5.22,2.66-8.6,8.24-3.63,8.24-3.63S217.66,383.08,214.65,386.46Z" style="fill:#4FC671"></path><path d="M163.89,437.6s16.25-6.5,22.75-6.5,21.93,6.9,21.93,6.9Z" style="fill:#263238"></path></g><g id="freepik--Shovel--inject-71"><path d="M661.65,435.58h24.54c.1-.24.21-.47.3-.72,3.3-8.41,1.19-14.45,1.19-14.45s-24.26-4.44-25-3.62-2,8.23-1.55,15.31A21.31,21.31,0,0,0,661.65,435.58Z" style="fill:#adadad"></path><path d="M686.19,436.08H661.65a.49.49,0,0,1-.49-.39,21.7,21.7,0,0,1-.52-3.56c-.39-6.88.77-14.63,1.68-15.67.22-.25.91-1,25.45,3.46a.49.49,0,0,1,.38.33c.09.25,2.13,6.31-1.19,14.79l-.22.54-.08.2A.51.51,0,0,1,686.19,436.08Zm-24.14-1h23.81c.06-.13.11-.26.17-.4,2.79-7.14,1.6-12.58,1.26-13.83-8.74-1.6-22.61-3.92-24.27-3.65-.55,1-1.78,7.84-1.38,14.87A20.29,20.29,0,0,0,662.05,435.08Zm.88-17.86Z" style="fill:#263238"></path><path d="M701.54,322.12a1,1,0,0,0-.8-.76l-15-2.94a1.06,1.06,0,0,0-1.13.52c-.14.25-1.36,2.67.15,9.32,1,4.5,1.46,6.93,2,8.53a14.06,14.06,0,0,1,.46,1.42c0,.05,0,.1,0,.15a1.07,1.07,0,0,0,.92.69l3.58.27a1,1,0,0,0,.83-.32c.13-.13,3.39-4.56,5.56-7.27C700.45,328.83,702.16,324.4,701.54,322.12Zm-5,8.29c-1.69,2.12-4.21,5.87-5.08,6.77l-2.36-.18c-.08-.26-.19-.56-.32-.91-.55-1.56-1-3.92-2-8.3a24.14,24.14,0,0,1-.69-5.49l13.24,2.63A15.3,15.3,0,0,1,696.49,330.41Z" style="fill:#263238"></path><path d="M688.11,336.86l-15.2,85.5s0,13.95,1.05,12.12,3.4-10.75,3.55-11.7S692,337.65,692,337.65Z" style="fill:#fff"></path><path d="M673.79,435.15l-.16,0c-.42-.11-1.2-.31-1.22-12.77l15.21-85.59a.51.51,0,0,1,.59-.4l3.87.79a.49.49,0,0,1,.39.57c-.14.85-14.32,84.2-14.47,85.13s-2.53,9.94-3.6,11.87A.7.7,0,0,1,673.79,435.15Zm.29-.86h0Zm14.43-96.84-15.1,85a103.72,103.72,0,0,0,.47,11A103.74,103.74,0,0,0,677,422.71c.14-.91,13.12-77.18,14.39-84.67Z" style="fill:#263238"></path><path d="M674.9,411.15l-2,11.21s0,13.95,1.05,12.12,3.4-10.75,3.55-11.7c0-.2.73-4.42,1.79-10.87Z" style="fill:#adadad"></path><path d="M673.79,435.15l-.16,0c-.42-.11-1.2-.31-1.22-12.77l2-11.29a.51.51,0,0,1,.58-.41l4.4.75a.5.5,0,0,1,.4.58c-1.06,6.45-1.76,10.66-1.79,10.87-.13.88-2.53,9.94-3.6,11.87A.7.7,0,0,1,673.79,435.15Zm.29-.86h0Zm1.23-22.56-1.9,10.71a103.72,103.72,0,0,0,.47,11A103.74,103.74,0,0,0,677,422.71c0-.21.7-4.22,1.72-10.39Z" style="fill:#263238"></path><path d="M703,438c-7-2.4-22.91-7.44-31.21-7s-20,5-24.75,7Z" style="fill:#263238"></path></g><g id="freepik--Floor--inject-71"><path d="M724.51,438.5h-10a.51.51,0,0,1-.5-.5.5.5,0,0,1,.5-.5h10a.5.5,0,0,1,.5.5A.51.51,0,0,1,724.51,438.5Z" style="fill:#263238"></path><path d="M705.91,438.5h-675a.5.5,0,0,1-.5-.5.5.5,0,0,1,.5-.5h675a.5.5,0,0,1,.5.5A.51.51,0,0,1,705.91,438.5Z" style="fill:#263238"></path></g><g id="freepik--character-4--inject-71"><path d="M575,304.39s-.81,7.41-.68,9.57,2,2.15,1.62,4-2.56,4.85-1.89,5.79,3.51,1.62,3.51,1.62l4.71,5.12,6.88-2.56,5.39-10.51s1.62-9-3.1-13.07-8.09-4.18-10.78-3.51S575,304.39,575,304.39Z" style="fill:#fff"></path><path d="M582.27,331a.46.46,0,0,1-.36-.16l-4.62-5c-.66-.17-3-.81-3.64-1.78-.58-.8.06-2.16.81-3.72a13.22,13.22,0,0,0,1-2.47c.16-.73-.11-1-.55-1.54a3.73,3.73,0,0,1-1.08-2.36c-.13-2.18.65-9.35.68-9.66a.51.51,0,0,1,.15-.3c.13-.12,3.09-2.93,5.89-3.63,2.53-.63,6.09-.79,11.22,3.61,4.88,4.18,3.34,13.16,3.27,13.54a.39.39,0,0,1,0,.14l-5.39,10.51a.46.46,0,0,1-.27.24L582.45,331Zm-6.8-26.4c-.12,1.16-.77,7.39-.65,9.29a2.72,2.72,0,0,0,.84,1.77,2.5,2.5,0,0,1,.77,2.41,13.29,13.29,0,0,1-1.07,2.69c-.42.89-1.13,2.39-.9,2.71.39.55,2.11,1.16,3.21,1.42a.61.61,0,0,1,.26.15l4.49,4.88,6.37-2.38,5.27-10.27c.13-.84,1.28-8.91-2.95-12.53-4.78-4.11-8-4-10.33-3.4S576.07,304.09,575.47,304.63Z" style="fill:#263238"></path><path d="M586.05,311.8c.54,1.35,4.58,12.8,4.85,14.42a12.29,12.29,0,0,1-.81,5.12,9.32,9.32,0,0,1-4.72,4.72c-2.29.81-3.23-.14-4.31-1.08s-.94-3.1-1.21-4.72-2-3.5-2.29-4.85,2-2.29,3.23-1.75a18.09,18.09,0,0,1,2.56,1.48,3,3,0,0,0,1.89-2.83c0-2.15-1.89-9.7-1.89-9.7a31.24,31.24,0,0,1-5.39-1.48c-1.21-.68.54-3,.54-3s2.16-3.5,1.35-4.58-3.64,1.62-4.31,1.75-2,.81-2-1.75.8-5.8,1.48-4.85,1.21,1.75,1.88.67,1-2.42,1.89-1.62l.94.81a16.1,16.1,0,0,1,7-3.23c4.72-1.08,11.32-.27,13.48,3.77s1.35,10.51,1.62,10.92-.41,1.88-2.56,3.37a41.45,41.45,0,0,0-4.72,4L590,313.15s.13-3.78-1.89-3.78S586.05,311.8,586.05,311.8Z" style="fill:#263238"></path><path d="M583.81,336.86a4.3,4.3,0,0,1-2.95-1.39l-.13-.11c-1-.84-1.09-2.31-1.22-3.73,0-.44-.09-.88-.15-1.28a8.46,8.46,0,0,0-1.18-2.52,8.08,8.08,0,0,1-1.11-2.32,1.77,1.77,0,0,1,.74-1.76,3.38,3.38,0,0,1,3.19-.55,18.06,18.06,0,0,1,2.4,1.37,2.49,2.49,0,0,0,1.34-2.26c0-1.83-1.45-7.84-1.8-9.27a27.61,27.61,0,0,1-5.22-1.48,1.25,1.25,0,0,1-.65-.88c-.24-1.12.9-2.65,1-2.82.93-1.51,1.71-3.5,1.35-4s-2,.8-2.5,1.19a4.5,4.5,0,0,1-1.32.75l-.22.06a1.88,1.88,0,0,1-1.69-.15,2.6,2.6,0,0,1-.71-2.15c0-1.34.36-5.12,1.52-5.49a.75.75,0,0,1,.87.35,3.91,3.91,0,0,0,.84,1,1.55,1.55,0,0,0,.22-.28c.15-.24.28-.5.4-.74.32-.63.62-1.23,1.21-1.34a1.22,1.22,0,0,1,1,.34l.62.54a17.42,17.42,0,0,1,6.89-3.07c5.14-1.17,11.8-.16,14,4,1.65,3.1,1.63,7.42,1.61,9.75,0,.5,0,1,0,1.19.47.87-.71,2.6-2.73,4a43.5,43.5,0,0,0-4.65,4,.49.49,0,0,1-.69,0l-4.59-4.31a.5.5,0,0,1-.15-.38,5,5,0,0,0-.74-3,.85.85,0,0,0-.65-.28c-1.33,0-1.5,1.43-1.52,1.84.64,1.65,4.57,12.78,4.84,14.43a11.89,11.89,0,0,1-.82,5.36,9.85,9.85,0,0,1-5,5A5.28,5.28,0,0,1,583.81,336.86ZM580,324a2.6,2.6,0,0,0-1.55.52.83.83,0,0,0-.39.78,7.56,7.56,0,0,0,1,2,8.86,8.86,0,0,1,1.31,2.87c.07.43.12.89.16,1.35.12,1.23.24,2.5.89,3.07l.13.12c1,.86,1.76,1.55,3.69.87a8.91,8.91,0,0,0,4.41-4.41,11.3,11.3,0,0,0,.79-4.88c-.25-1.51-4.22-12.79-4.83-14.31a.63.63,0,0,1,0-.19c0-1,.53-2.93,2.52-2.93a1.88,1.88,0,0,1,1.37.59,5.51,5.51,0,0,1,1,3.47l4.07,3.84A39.69,39.69,0,0,1,599,313c1.91-1.31,2.44-2.48,2.4-2.74s-.12-.44-.12-1.62c0-2.24,0-6.4-1.49-9.27-1.93-3.61-8.08-4.63-12.93-3.52a15.72,15.72,0,0,0-6.77,3.11.5.5,0,0,1-.67,0l-.94-.81a.56.56,0,0,0-.2-.12,3.21,3.21,0,0,0-.5.82c-.13.26-.28.54-.44.81a1.42,1.42,0,0,1-1,.75c-.59,0-1-.52-1.51-1.18a12.13,12.13,0,0,0-.74,4.34c0,1,.23,1.29.32,1.36s.54,0,.83,0l.28-.07a7.19,7.19,0,0,0,.94-.6c1.28-.88,3-2.09,3.87-1s-.77,4.25-1.32,5.14a3.57,3.57,0,0,0-.88,2.06.26.26,0,0,0,.16.21,28.59,28.59,0,0,0,5.24,1.43.49.49,0,0,1,.39.37c.08.31,1.9,7.63,1.9,9.82a3.5,3.5,0,0,1-2.22,3.3.46.46,0,0,1-.45-.06,18.68,18.68,0,0,0-2.48-1.43A1.43,1.43,0,0,0,580,324Z" style="fill:#263238"></path><path d="M578.1,314.76s-3.24-2-3.78-.8" style="fill:#fff"></path><path d="M578.1,315.26a.52.52,0,0,1-.27-.07c-.87-.54-2.41-1.27-3-1.1-.07,0-.08.05-.09.07a.5.5,0,0,1-.66.25.49.49,0,0,1-.25-.66,1.13,1.13,0,0,1,.71-.62c1.18-.36,3.36.95,3.78,1.21a.5.5,0,0,1-.26.92Z" style="fill:#263238"></path><path d="M577,319.17a.49.49,0,0,0,.49-.41,5.62,5.62,0,0,0-.29-2.27.49.49,0,0,0-.63-.31.5.5,0,0,0-.32.63,4.62,4.62,0,0,1,.26,1.78.5.5,0,0,0,.41.58Z" style="fill:#263238"></path><path d="M580,328.07a.52.52,0,0,1-.47-.34.5.5,0,0,1,.32-.64,2.32,2.32,0,0,0,1.29-1.42.51.51,0,0,1,.63-.33.5.5,0,0,1,.33.62,3.36,3.36,0,0,1-1.94,2.08A.41.41,0,0,1,580,328.07Z" style="fill:#fff"></path><path d="M577.09,431.08l-7.45,4.33s-9.53,2.6-9.88,3.12-.17,1.56,1.91,2.43,16.12,2.43,22.35,2.25,12,.7,13.52-2.25-1.21-9.71-1.21-9.71Z" style="fill:#fff"></path><path d="M583,443.73c-6.67,0-19.43-1.44-21.52-2.31-1.6-.67-2.12-1.44-2.28-2a1.39,1.39,0,0,1,.15-1.2c.12-.17.45-.68,10.11-3.31l7.39-4.3a.54.54,0,0,1,.26-.07l19.23.17a.5.5,0,0,1,.46.32c.12.28,2.84,7,1.2,10.12-1.37,2.58-5.38,2.55-10,2.51-1.27,0-2.58,0-3.92,0Zm-22.84-4.87a.45.45,0,0,0,0,.31c.07.21.36.76,1.72,1.33,1.9.79,15.7,2.4,22.15,2.21,1.36,0,2.68,0,4,0,4.32,0,8,.07,9.13-2s-.32-6.94-1.11-9l-18.77-.17-7.33,4.27-.12,0A96,96,0,0,0,560.15,438.86Zm9.49-3.45h0Z" style="fill:#263238"></path><path d="M640.87,412.19s8.84,7.63,8.32,9.53-2.77,5.72-4.68,9.88-1.91,7.8-4.51,9-9.87.7-12.3.52-4.68-.86-3.47-2.77,3.3-1.91,3.47-4.85,1-9.71,1-9.71l9.36-12.13S638.1,410.28,640.87,412.19Z" style="fill:#fff"></path><path d="M633.85,441.89c-2.09,0-4.3-.12-6.18-.26-2.28-.16-3.66-.7-4.11-1.6a1.9,1.9,0,0,1,.25-1.94,6.71,6.71,0,0,1,1.67-1.69,3.48,3.48,0,0,0,1.72-2.92c.17-2.93,1-9.67,1-9.74a.51.51,0,0,1,.1-.24l9.28-12a1,1,0,0,1,.5-.66c.63-.33,1.59,0,3,1l.05,0c2.13,1.84,9,8,8.47,10a34.53,34.53,0,0,1-2.35,5.18c-.74,1.45-1.58,3.1-2.36,4.78a35.25,35.25,0,0,0-1.44,3.94c-.75,2.37-1.39,4.42-3.3,5.32C638.87,441.7,636.45,441.89,633.85,441.89ZM629.22,424c-.12,1-.86,6.87-1,9.54a4.42,4.42,0,0,1-2.1,3.64,5.67,5.67,0,0,0-1.44,1.45c-.26.4-.33.71-.21.95.27.53,1.5.93,3.29,1.05,2.37.17,9.57.69,12-.47,1.52-.71,2.05-2.39,2.78-4.71a33.89,33.89,0,0,1,1.49-4.06c.78-1.7,1.62-3.36,2.37-4.82a36,36,0,0,0,2.28-5c.26-1-4-5.42-8.14-9-1.56-1.07-2-.9-2-.89a.42.42,0,0,1-.1.28Z" style="fill:#263238"></path><path d="M640,440.61c-1.73.81-5.52.85-8.59.73l1.66-.9c2.95-1.56,8.15-14,9.88-17.33s6.24-1.39,6.24-1.39c-.52,1.91-2.77,5.72-4.68,9.88S642.6,439.4,640,440.61Z" style="fill:#fff"></path><path d="M633.79,441.89c-.75,0-1.54,0-2.4-.05a.5.5,0,0,1-.22-.93c.54-.3,1.1-.61,1.67-.91,2.13-1.13,5.81-9,8-13.68.68-1.44,1.26-2.69,1.66-3.44,1.54-2.93,5.17-2.34,6.88-1.62a.49.49,0,0,1,.28.59,34.53,34.53,0,0,1-2.35,5.18c-.74,1.45-1.58,3.1-2.36,4.78a35.25,35.25,0,0,0-1.44,3.94c-.75,2.37-1.39,4.42-3.3,5.32h0C639,441.62,636.88,441.89,633.79,441.89Zm-.5-1c4,.05,5.71-.36,6.5-.73h0c1.52-.71,2.05-2.39,2.78-4.71a33.89,33.89,0,0,1,1.49-4.06c.78-1.7,1.62-3.36,2.37-4.82a46.58,46.58,0,0,0,2.14-4.54c-1.09-.36-4-1-5.18,1.31-.38.74-1,2-1.63,3.4-3.18,6.78-6.21,13-8.45,14.14Z" style="fill:#263238"></path><path d="M639.14,413.06,627.7,426.92s-33.1-21-36.92-24.61a14,14,0,0,1-4.68-11.09c.18-3.47,3.82-8.15,6.76-7.11S639.14,413.06,639.14,413.06Z" style="fill:#263238"></path><path d="M627.7,427.42a.45.45,0,0,1-.27-.08c-1.35-.85-33.19-21-37-24.67a14.36,14.36,0,0,1-4.83-11.48,9.85,9.85,0,0,1,4-6.9,3.82,3.82,0,0,1,3.44-.65c3,1.05,44.61,27.86,46.38,29a.47.47,0,0,1,.22.34.5.5,0,0,1-.11.4l-11.44,13.86A.48.48,0,0,1,627.7,427.42ZM592,384.47a3.45,3.45,0,0,0-1.85.65,8.91,8.91,0,0,0-3.55,6.12A13.44,13.44,0,0,0,591.13,402c3.52,3.36,32.81,22,36.46,24.31l10.8-13.09c-15.09-9.72-43.43-27.79-45.69-28.59A2.17,2.17,0,0,0,592,384.47Z" style="fill:#263238"></path><path d="M660.32,392.65s-2,11.33-7.93,17-19.5,5.89-22.44,5-24-12-28.79-15.86a165.09,165.09,0,0,1-12-11.57l7.94,45.34s-6.12.68-8.16.23S576,431.63,576,431.63s-.68-4.08,0-6.12,1.58-2.72,1.13-4.08a30.82,30.82,0,0,1-1.13-5.66c-.23-2-8.39-39.45-9.3-45.11s2-7.79,4.08-9.3l2.12-1.51s3.92-1.46,6.8-.8S602,367.12,602,367.12l8.39.32s17.71,17.32,22.56,19,18.76,5,21.38,4.2,6.43-2.36,6.43-2.36Z" style="fill:#263238"></path><path d="M591.07,433.42a10.87,10.87,0,0,1-2.26-.17c-2-.43-12.74-1.11-12.84-1.12a.5.5,0,0,1-.47-.42c0-.17-.69-4.22,0-6.36a15.63,15.63,0,0,1,.74-1.76c.44-.9.62-1.33.4-2a31.8,31.8,0,0,1-1.16-5.77c-.1-.9-1.9-9.41-3.81-18.41-2.33-11.05-5-23.58-5.48-26.67-1-6,2.19-8.29,4.28-9.78l2.12-1.51a.41.41,0,0,1,.11-.07c.17-.06,4.1-1.5,7.1-.82,2.82.64,20.77,7.48,22.29,8.06l8.31.33a.47.47,0,0,1,.33.14c.17.17,17.68,17.25,22.37,18.9,5,1.74,18.67,4.91,21.08,4.19s6.34-2.33,6.38-2.34a.51.51,0,0,1,.49.06.49.49,0,0,1,.19.45l-.44,4.35v0c-.08.47-2.13,11.56-8.08,17.28s-20.07,6-22.93,5.1c-3-.93-24.06-12-29-16a147.76,147.76,0,0,1-10.92-10.41l7.65,43.71a.53.53,0,0,1-.09.39.52.52,0,0,1-.35.2C597,433.06,593.63,433.42,591.07,433.42Zm-14.64-2.26c2,.13,10.74.71,12.6,1.12,1.59.35,5.94,0,7.46-.18l-7.84-44.81a.49.49,0,0,1,.27-.53.5.5,0,0,1,.59.1,162.46,162.46,0,0,0,12,11.52c4.78,3.86,25.86,14.93,28.62,15.78s16.13.72,21.95-4.87c5.6-5.39,7.69-16.21,7.79-16.72l.35-3.49c-1.25.5-3.79,1.49-5.7,2.06-2.86.87-17.18-2.62-21.69-4.2-4.72-1.67-20.81-17.26-22.6-19l-8.2-.32a.45.45,0,0,1-.16,0c-.19-.08-19.42-7.41-22.24-8-2.52-.57-6,.59-6.46.76l-2,1.47c-2,1.43-4.75,3.39-3.88,8.81.49,3.07,3.14,15.58,5.47,26.62,2,9.42,3.72,17.56,3.82,18.51a30.32,30.32,0,0,0,1.12,5.56,3.31,3.31,0,0,1-.45,2.76,12.29,12.29,0,0,0-.69,1.64C576,427.21,576.29,430.11,576.43,431.16Zm83.89-38.51h0Z" style="fill:#263238"></path><path d="M586,340.24S588.51,325,590.4,321s11.35-11.46,17.27-9.7,26.36,15.19,41.05,42.22,13.65,39.63,13.65,39.63-14.17,4.73-22.57,1.31S629,390.22,623,382.87,610.67,369.48,609.36,369s-7.35-1.84-7.35-1.84Z" style="fill:#fff"></path><path d="M647.37,396.16a20.88,20.88,0,0,1-7.76-1.28l-.83-.34c-7.66-3.11-10.25-4.16-16.16-11.36-6.26-7.62-12.35-13.32-13.45-13.76-1.26-.5-7.21-1.8-7.27-1.81a.5.5,0,0,1-.32-.23l-16-26.89a.48.48,0,0,1-.06-.33c.1-.63,2.55-15.37,4.45-19.42,2-4.3,11.77-11.78,17.86-10,5.82,1.73,26.43,15,41.35,42.47,14.6,26.85,13.75,39.38,13.71,39.9a.52.52,0,0,1-.34.44A54.85,54.85,0,0,1,647.37,396.16Zm-45-29.48c1.1.24,6,1.33,7.21,1.81,1.56.63,8.08,7,13.85,14.06s8.08,7.94,15.77,11.06l.83.34c7.43,3,19.73-.55,21.89-1.22,0-2.15-.45-14.83-13.6-39-14.77-27.17-35-40.28-40.75-42-5.56-1.65-14.82,5.49-16.67,9.44-1.73,3.69-4.05,17.24-4.34,19Z" style="fill:#263238"></path><path d="M603,344.44s-5.29,11.18-6.35,13.15-5.74,9.21-8.92,8a25.76,25.76,0,0,1-6.49-3.63c-.46-.45-4.08-2.87-4.08-2.87l-4.23.75s.45-3.32.9-5.44.76-3,2.57-3.47a24.56,24.56,0,0,1,5.29-.3l5.44-12.24Z" style="fill:#fff"></path><path d="M588.44,366.23a2.41,2.41,0,0,1-.91-.17,25.94,25.94,0,0,1-6.68-3.74c-.29-.29-2.43-1.76-3.83-2.7l-4,.73a.51.51,0,0,1-.43-.14.48.48,0,0,1-.15-.42s.46-3.37.91-5.48.81-3.33,2.94-3.86a24,24,0,0,1,5.09-.33l5.3-11.93a.5.5,0,0,1,.64-.26l15.86,6a.5.5,0,0,1,.28.68c-.22.46-5.31,11.22-6.36,13.17C597,357.92,592.35,366.23,588.44,366.23Zm-11.31-7.63a.57.57,0,0,1,.28.08c.61.41,3.69,2.47,4.15,2.94a25.6,25.6,0,0,0,6.32,3.51c2.6,1,7-5.36,8.3-7.78.91-1.7,5.07-10.46,6.1-12.64L587.37,339l-5.25,11.81a.53.53,0,0,1-.48.3,24,24,0,0,0-5.15.28c-1.47.37-1.73.92-2.2,3.1-.32,1.5-.64,3.64-.8,4.72l3.55-.63Z" style="fill:#263238"></path><line x1="581.66" y1="350.64" x2="580.91" y2="354.87" style="fill:#fff"></line><path d="M580.91,355.37h-.09a.51.51,0,0,1-.41-.58l.76-4.23a.51.51,0,0,1,.58-.41.5.5,0,0,1,.4.58L581.4,355A.51.51,0,0,1,580.91,355.37Z" style="fill:#263238"></path><line x1="577.13" y1="359.1" x2="574.86" y2="356.68" style="fill:#fff"></line><path d="M577.13,359.6a.54.54,0,0,1-.37-.16L574.5,357a.5.5,0,1,1,.73-.68l2.26,2.42a.49.49,0,0,1,0,.7A.51.51,0,0,1,577.13,359.6Z" style="fill:#263238"></path><path d="M609.92,328.88,604,347.46l-19.79-7.7S589,325.57,590.4,321s7.73-9.6,10.75-9.6,6.65,1.66,7.56,3.48" style="fill:#fff"></path><path d="M604,348l-.18,0-19.79-7.71a.49.49,0,0,1-.29-.62c0-.14,4.8-14.23,6.16-18.79s7.9-10,11.23-10,7,1.75,8,3.75a.5.5,0,0,1-.9.45c-.82-1.65-4.27-3.2-7.11-3.2-2.69,0-8.9,4.66-10.27,9.25-1.23,4.11-5.19,15.9-6,18.36l18.85,7.34,5.73-18.07a.5.5,0,0,1,.63-.33.49.49,0,0,1,.32.63l-5.89,18.58a.49.49,0,0,1-.26.3A.42.42,0,0,1,604,348Z" style="fill:#263238"></path><path d="M588.7,386.52a.51.51,0,0,1-.36-.15l-12.13-12.66a.5.5,0,0,1,.72-.69l12.14,12.65a.5.5,0,0,1,0,.71A.52.52,0,0,1,588.7,386.52Z" style="fill:#fff"></path></g><g id="freepik--character-3--inject-71"><path d="M509.34,372.56c0-2.6.14-5.26.16-7.9,5.29-.4,11-.85,13.46-1.11a22.17,22.17,0,0,0,8.16-2.33l7-3.49s8.75,1.8,9.27,1.88.71,1-.4,1.3a9.84,9.84,0,0,1-3.43-.09s4.12.79,4,1.43A1.42,1.42,0,0,1,546,363.4a31.06,31.06,0,0,0-4.29.11s5.62,2.19,4,2.95-3.85-.69-3.85-.69,2.57,2.06,1.31,2.17a16.6,16.6,0,0,1-4.11-.8s-5.71,1.36-7.7,1.78a8.86,8.86,0,0,1-3.94-.18s-10,3.18-18.11,4.91C509.34,373.28,509.34,372.92,509.34,372.56Z" style="fill:#fff"></path><path d="M509.33,374.15a.5.5,0,0,1-.5-.5v-1.09c0-1.4,0-2.81.08-4.23,0-1.22.07-2.45.08-3.68a.49.49,0,0,1,.46-.49c6.89-.52,11.41-.89,13.45-1.11a21.68,21.68,0,0,0,8-2.26l7.08-3.51a.45.45,0,0,1,.32,0c3,.62,8.85,1.81,9.25,1.88a1,1,0,0,1,.83.92,1.35,1.35,0,0,1-1,1.3c.89.42.85.76.82,1a1.84,1.84,0,0,1-.76,1.25,1.89,1.89,0,0,1-1.51.33,13,13,0,0,0-2.07,0c1.45.7,2.67,1.49,2.7,2.22a.84.84,0,0,1-.56.82,3.34,3.34,0,0,1-2.11.18,1,1,0,0,1,.17.81.8.8,0,0,1-.77.54,15.42,15.42,0,0,1-4.18-.78c-.87.21-5.77,1.37-7.58,1.75a9.18,9.18,0,0,1-4-.15c-1.25.4-10.49,3.27-18,4.88Zm.66-9c0,1.08,0,2.16-.07,3.24,0,1.41-.08,2.81-.08,4.2V373c7.88-1.73,17.35-4.73,17.45-4.76a.61.61,0,0,1,.3,0,8.29,8.29,0,0,0,3.69.17c2-.41,7.63-1.76,7.68-1.77a.42.42,0,0,1,.27,0,18,18,0,0,0,3.66.78,8.71,8.71,0,0,0-1.33-1.29.51.51,0,0,1-.09-.68.49.49,0,0,1,.68-.13c.55.35,2.2,1.15,3.29.7a14.65,14.65,0,0,0-3.93-2.08.49.49,0,0,1-.32-.53.51.51,0,0,1,.46-.43,27.83,27.83,0,0,1,4.43-.1,1,1,0,0,0,.72-.15.93.93,0,0,0,.32-.42,16.38,16.38,0,0,0-3.6-1h0a.51.51,0,0,1-.4-.59.49.49,0,0,1,.59-.39,9,9,0,0,0,3.18.1c.3-.09.43-.22.46-.3l-9.11-1.88-6.9,3.42A22.15,22.15,0,0,1,523,364C521,364.26,516.63,364.62,510,365.12Z" style="fill:#263238"></path><path d="M533.73,366.09a5.54,5.54,0,0,1-1-.09l-3.21-.62a.5.5,0,1,1,.19-1L533,365a3.79,3.79,0,0,0,4.08-2,.51.51,0,0,1,.44-.29,34.12,34.12,0,0,0,6.37-.51c.28-.1.38-.21.38-.26s-.33-.51-.77-.66c-.63-.21-5-.63-7.68-.85a.5.5,0,0,1-.46-.53.52.52,0,0,1,.54-.46c.71.06,7,.58,7.91.89a2,2,0,0,1,1.46,1.6c0,.31-.13.88-1,1.21-1.24.45-5.21.55-6.4.57A4.82,4.82,0,0,1,533.73,366.09Z" style="fill:#263238"></path><path d="M480.93,415.11l-3.41,13.49s5.17,3.53,6.56,4.29,6.43,2,7.69,2.52,2.15,1.77.63,2.65-9.46,1.52-13,1.39-8.83-.76-8.83-.76-5.17,0-5.67-1.13-.13-5.05.88-6.31a20.07,20.07,0,0,0,3-5.55c.25-1.26,1.39-8.83,1.39-8.83Z" style="fill:#fff"></path><path d="M480.41,440h-1c-3.51-.13-8.81-.75-8.87-.76h0c-1.63,0-5.45-.15-6-1.43s-.15-5.44.95-6.82a19.73,19.73,0,0,0,2.93-5.34c.25-1.23,1.37-8.72,1.38-8.8a.51.51,0,0,1,.41-.42l10.72-1.76a.5.5,0,0,1,.57.61l-3.32,13.16c1.11.75,5.06,3.43,6.23,4.06a36.87,36.87,0,0,0,4.89,1.64c1.21.35,2.24.66,2.75.86a2.53,2.53,0,0,1,1.74,1.91,1.75,1.75,0,0,1-1.05,1.63C491.1,439.4,484.22,440,480.41,440Zm-9.76-22.65c-.24,1.53-1.12,7.38-1.34,8.49a20.4,20.4,0,0,1-3.13,5.76c-.91,1.15-1.23,4.86-.81,5.79.2.44,2.69.84,5.21.84.11,0,5.38.64,8.85.76,3.81.14,11.42-.56,12.72-1.32.26-.15.57-.4.55-.69s-.5-.82-1.11-1.06-1.53-.5-2.66-.83a35.81,35.81,0,0,1-5.09-1.72c-1.39-.76-6.39-4.17-6.6-4.31a.48.48,0,0,1-.2-.54l3.21-12.75Z" style="fill:#263238"></path><path d="M464.91,437.56c-.51-1.14-.13-5.05.88-6.31.21-.26.45-.6.7-1,2.93,1.32,9.14,1.6,9.14,1.6a22.33,22.33,0,0,0,.63-2.27c.13-.75,1.26-1,1.26-1s5.17,3.53,6.56,4.29,6.43,2,7.69,2.52,2.15,1.77.63,2.65-9.46,1.52-13,1.39-8.83-.76-8.83-.76S465.41,438.69,464.91,437.56Z" style="fill:#fff"></path><path d="M480.41,440h-1c-3.51-.13-8.81-.75-8.87-.76h0c-1.63,0-5.45-.15-6-1.43s-.15-5.44.95-6.82c.2-.25.43-.58.67-.94a.51.51,0,0,1,.62-.18c2.41,1.09,7.2,1.46,8.58,1.54.15-.48.41-1.34.5-1.83.17-1.06,1.49-1.38,1.64-1.41a.48.48,0,0,1,.39.07c.05,0,5.17,3.53,6.52,4.26a36.87,36.87,0,0,0,4.89,1.64c1.21.35,2.24.66,2.75.86a2.53,2.53,0,0,1,1.74,1.91,1.75,1.75,0,0,1-1.05,1.63C491.1,439.4,484.22,440,480.41,440Zm-15-2.61c.2.44,2.69.84,5.21.84.11,0,5.38.64,8.85.76,3.81.14,11.42-.56,12.72-1.32.26-.15.57-.4.55-.69s-.5-.82-1.11-1.06-1.53-.5-2.66-.83a35.81,35.81,0,0,1-5.09-1.72c-1.26-.68-5.43-3.52-6.41-4.18-.28.1-.64.29-.68.54a21.25,21.25,0,0,1-.65,2.35.47.47,0,0,1-.49.34c-.25,0-5.84-.27-8.94-1.48-.17.25-.34.48-.49.66-.91,1.15-1.23,4.86-.81,5.79l-.46.21Z" style="fill:#263238"></path><path d="M449.9,422.17l-7.82,3.28a14.15,14.15,0,0,0,1.51,6.56c1.64,2.9,2.65,5,4.54,6.05s3.91,2.52,2.65,3.53-13.24.89-14.63.38-5.67-7.06-6.68-8.83-2.65-7.18-2-7.94,4.16-4.67,4.16-4.67l1.14-.63,14.38-2Z" style="fill:#fff"></path><path d="M442.89,442.86a37.48,37.48,0,0,1-6.91-.42c-1.75-.63-6.47-8.21-6.94-9.05-.88-1.53-2.9-7.4-2-8.51.63-.76,4-4.52,4.17-4.68a.69.69,0,0,1,.13-.11l1.13-.63a.61.61,0,0,1,.18,0l14.38-2a.51.51,0,0,1,.49.22l2.77,4.29a.52.52,0,0,1,.06.42.5.5,0,0,1-.29.31l-7.51,3.15a13.52,13.52,0,0,0,1.45,6l.58,1c1.29,2.33,2.23,4,3.76,4.83s3.19,1.94,3.3,3.13a1.38,1.38,0,0,1-.57,1.23C450.29,442.63,446.5,442.86,442.89,442.86Zm-11-21.93c-.45.5-3.52,3.9-4.1,4.59-.32.67,1.05,5.58,2.07,7.38,1.32,2.29,5.35,8.21,6.42,8.6,1.52.55,13.16.5,14.15-.3.22-.17.21-.3.2-.36,0-.41-.78-1.28-2.77-2.34-1.79-.95-2.84-2.84-4.17-5.22l-.57-1a14.59,14.59,0,0,1-1.58-6.82.5.5,0,0,1,.31-.44l7.27-3.05-2.28-3.52-14,2Z" style="fill:#263238"></path><path d="M427.45,425.2c.63-.76,4.16-4.67,4.16-4.67l1.14-.63h.08c0,1,0,2.07,0,2.91,0,2.15,2.65,4.67,2.65,4.67a22,22,0,0,1,4.67-2.4c2.52-.88,1.89.38,1.89.38a14.15,14.15,0,0,0,1.51,6.56c1.64,2.9,2.65,5,4.54,6.05s3.91,2.52,2.65,3.53-13.24.89-14.63.38-5.67-7.06-6.68-8.83S426.82,426,427.45,425.2Z" style="fill:#fff"></path><path d="M442.89,442.86a37.48,37.48,0,0,1-6.91-.42c-1.75-.63-6.47-8.21-6.94-9.05-.88-1.53-2.9-7.4-2-8.51.63-.76,4-4.52,4.17-4.68a.41.41,0,0,1,.13-.1l1.13-.64a.61.61,0,0,1,.18,0,.55.55,0,0,1,.43.1.56.56,0,0,1,.22.37c0,1,0,2.08,0,2.92,0,1.52,1.57,3.33,2.22,4A21.56,21.56,0,0,1,440,424.6c1.29-.45,2-.46,2.42,0a1,1,0,0,1,.14,1,13.71,13.71,0,0,0,1.45,6.21l.58,1c1.29,2.33,2.23,4,3.76,4.83s3.19,1.94,3.3,3.13a1.38,1.38,0,0,1-.57,1.23C450.29,442.63,446.5,442.86,442.89,442.86Zm-15-17.36c-.33.73,1,5.6,2,7.4,1.32,2.29,5.35,8.21,6.42,8.6,1.52.55,13.16.5,14.15-.3.22-.17.21-.3.2-.36,0-.41-.78-1.28-2.77-2.34-1.79-.95-2.84-2.84-4.17-5.22l-.57-1a14.59,14.59,0,0,1-1.58-6.82.47.47,0,0,1,0-.17,3.84,3.84,0,0,0-1.27.28,20.85,20.85,0,0,0-4.54,2.34.5.5,0,0,1-.63-.05c-.12-.11-2.81-2.7-2.81-5,0-.62,0-1.36,0-2.1l-.42.23C431.48,421.43,428.45,424.79,427.85,425.5Z" style="fill:#263238"></path><path d="M457.47,388.25l.75,2.27s9.72-7.32,19.43-10.72,17-4.17,19.8-.51,1,11.23-1.77,15S486,416.12,486,416.12l-4.16.25-4.29,3.53s-13,3-14.5,3.66-9.84,4.79-9.84,4.79a54.32,54.32,0,0,1-5.05-4.92,39.49,39.49,0,0,1-2.77-5L430.6,420s-6.93-5.3-7.82-13.37.64-13.62,1.52-15,2.77-4.41,2.77-4.41l1.52-1.89Z" style="fill:#263238"></path><path d="M453.18,428.85a.5.5,0,0,1-.33-.12,54.64,54.64,0,0,1-5.12-5,35.88,35.88,0,0,1-2.67-4.81l-14.4,1.6a.47.47,0,0,1-.36-.1c-.29-.22-7.12-5.52-8-13.71s.68-13.9,1.59-15.33,2.77-4.41,2.77-4.41L428.2,385a.48.48,0,0,1,.44-.18l28.88,2.9a.5.5,0,0,1,.42.34l.54,1.62c2.22-1.6,10.65-7.46,19-10.39,11-3.84,17.62-3.95,20.36-.33,3,4,1,11.89-1.76,15.61s-9.57,21.52-9.64,21.7a.5.5,0,0,1-.44.32l-4,.24-4.16,3.43a.51.51,0,0,1-.21.1c-4.48,1-13.25,3.14-14.42,3.63-1.48.62-9.72,4.74-9.81,4.78A.54.54,0,0,1,453.18,428.85Zm-7.82-11a.49.49,0,0,1,.45.29,38.79,38.79,0,0,0,2.73,4.95,47.21,47.21,0,0,0,4.72,4.62c1.53-.76,8.2-4.08,9.56-4.65s13.1-3.34,14.47-3.66l4.2-3.46a.57.57,0,0,1,.29-.11l3.84-.23c.95-2.45,7-18.07,9.66-21.64,2.83-3.85,4.25-11.14,1.77-14.41s-8.89-2.95-19.24.68c-9.52,3.34-19.19,10.57-19.29,10.65a.49.49,0,0,1-.44.07.46.46,0,0,1-.33-.32l-.65-2-28.29-2.84-1.35,1.68s-1.86,3-2.74,4.37-2.31,6.75-1.44,14.68c.78,7.1,6.47,12.08,7.48,12.91l14.54-1.62Z" style="fill:#263238"></path><path d="M430.23,406.91a.49.49,0,0,1-.42-.23A.5.5,0,0,1,430,406a35.05,35.05,0,0,1,3.49-2,.49.49,0,0,1,.67.22.5.5,0,0,1-.21.67,33.22,33.22,0,0,0-3.4,2A.46.46,0,0,1,430.23,406.91Z" style="fill:#fff"></path><path d="M483.07,414.73a.5.5,0,0,1-.39-.82s3.3-4.2,1.71-7.27-22.3-7.29-34.7-6.17a42.62,42.62,0,0,0-13.91,3.47.5.5,0,0,1-.66-.25.49.49,0,0,1,.25-.66,42.79,42.79,0,0,1,14.26-3.56c12.33-1.11,33.67,2.89,35.65,6.71,1.89,3.65-1.67,8.17-1.82,8.36A.51.51,0,0,1,483.07,414.73Z" style="fill:#fff"></path><path d="M431.11,400.35a.51.51,0,0,1-.5-.43.51.51,0,0,1,.42-.57,91.29,91.29,0,0,1,16.63-.76.5.5,0,1,1-.06,1,90.55,90.55,0,0,0-16.42.75Z" style="fill:#fff"></path><path d="M451.92,397.7a.64.64,0,0,1-.23-.05.51.51,0,0,1-.22-.67c1.17-2.34,5.25-5.7,5.43-5.84a.49.49,0,0,1,.7.07.49.49,0,0,1-.07.7s-4.09,3.37-5.16,5.51A.5.5,0,0,1,451.92,397.7Z" style="fill:#263238"></path><path d="M474.49,402.24a.49.49,0,0,1-.39-.8c3.28-4.3,16.32-13.59,16.88-14a.49.49,0,0,1,.69.12.49.49,0,0,1-.11.69c-.14.1-13.47,9.6-16.67,13.77A.51.51,0,0,1,474.49,402.24Z" style="fill:#fff"></path><path d="M445.36,418.89a.49.49,0,0,1-.45-.29.5.5,0,0,1,.24-.67c.38-.17,9.19-4.19,14.11-5.2,1.76-.36,3-.52,4-.64a12.92,12.92,0,0,0,5.08-1.46.5.5,0,0,1,.45.89,13.75,13.75,0,0,1-5.41,1.56c-1,.12-2.2.27-3.92.63-4.81,1-13.8,5.09-13.89,5.13A.54.54,0,0,1,445.36,418.89Z" style="fill:#fff"></path><path d="M472.43,413.91a15,15,0,0,1-5.58-.87.49.49,0,0,1-.25-.66.5.5,0,0,1,.66-.25c2.37,1.07,6.9.72,6.94.72a.48.48,0,0,1,.54.45.5.5,0,0,1-.46.54C474.21,413.85,473.46,413.91,472.43,413.91Z" style="fill:#fff"></path><path d="M468.72,302.69s-.92-2.53-4.81-3.44c-2.29-.54-5.93-.91-7.77,1-2.37,2.41-2.9,5.94-5.9,7.85-3.22,2.05-6.61,2.81-8.67,6.42-1.66,2.9,2.61,7.7,2.15,9.31s-3.89.45-4.35,5.27,2.75,7.57,2.75,8.26-3,.23-3.21,3.9,3.67,6.19,3.67,6.19,12.15-10.32,15.13-13.76,2.3-8.26,1.61-10.78,2.52-11.24,5.73-14A10.85,10.85,0,0,0,468.72,302.69Z" style="fill:#263238"></path><path d="M442.58,347.91a.5.5,0,0,1-.27-.08c-.17-.11-4.15-2.73-3.9-6.65a3.89,3.89,0,0,1,2.87-3.87l.27-.11-.38-.56a11,11,0,0,1-2.3-7.63c.32-3.4,2.12-4.14,3.31-4.62.62-.26,1-.42,1.06-.74s-.44-1.62-.95-2.67c-1-2.11-2.3-4.75-1.16-6.75,1.56-2.73,3.79-3.88,6.16-5.1.88-.46,1.79-.93,2.68-1.49a10.71,10.71,0,0,0,3.39-4.23,16,16,0,0,1,2.42-3.55c2.19-2.23,6.49-1.51,8.24-1.1,4.11,1,5.13,3.64,5.17,3.76a.45.45,0,0,1,0,.23,11.25,11.25,0,0,1-3.84,6.51c-3.22,2.76-6.18,11.26-5.58,13.48s1.57,7.45-1.71,11.23c-3,3.44-14.69,13.4-15.19,13.82A.49.49,0,0,1,442.58,347.91Zm17.81-48.6a5.35,5.35,0,0,0-3.89,1.25,14.68,14.68,0,0,0-2.27,3.34,11.39,11.39,0,0,1-3.72,4.58c-.93.59-1.86,1.07-2.76,1.54-2.23,1.15-4.34,2.24-5.75,4.71-.88,1.54.27,3.91,1.19,5.82.7,1.43,1.25,2.57,1,3.37s-.95,1.1-1.64,1.39c-1.14.47-2.43,1-2.7,3.8a10.14,10.14,0,0,0,2.14,7c.4.59.62.91.62,1.25,0,.55-.53.75-1,.92a2.93,2.93,0,0,0-2.21,3c-.18,2.75,2.27,4.87,3.14,5.52,1.88-1.6,12.12-10.38,14.79-13.45,3-3.42,2-8.36,1.5-10.32-.76-2.77,2.52-11.62,5.89-14.5a10.58,10.58,0,0,0,3.47-5.75c-.22-.48-1.26-2.28-4.41-3A15.48,15.48,0,0,0,460.39,299.31Z" style="fill:#263238"></path><path d="M421.08,391.78c.95-2.61,9.28-17.6,9.28-17.6,2.1-4.09,2.62-9.51,4.09-13.9,2.55-7.6,4.88-15.5,10.67-21.18,2.34-2.29,6.64-3.91,8.94-6.22,1.39-1.39.76-1.26,2.15-1.77s9.08-.5,14.12,2.78a51.3,51.3,0,0,1,7.25,4.78c3.76,3,5.8,7.62,8.2,11.7a77.09,77.09,0,0,0,4.32,6.4c.65.88,4,6.55,4.92,6.56l18,.22-.44,10.09-21.64,2.12L477.78,362c-.25,1.21-4.39,2-5.35,3.68l-5.67,15.83,1.91,1.91s-5.48,6.9-6.19,8.09-2.62,3.8-2.62,3.8L457,393.21l-1.19,5.24-16.9-2.38-16.65,5.71-4.52,3.09S420.13,394.4,421.08,391.78Z" style="fill:#4FC671"></path><path d="M417.75,405.37a.47.47,0,0,1-.28-.09.49.49,0,0,1-.21-.52c.1-.43,2.4-10.53,3.35-13.15.73-2,8.34-16.14,9.31-17.66h0a36.48,36.48,0,0,0,2.63-8.38c.43-1.83.87-3.73,1.44-5.45l.54-1.6c2.35-7.09,4.78-14.41,10.25-19.77a24.37,24.37,0,0,1,4.53-3.16,23.09,23.09,0,0,0,4.41-3.06,11.76,11.76,0,0,0,.85-.95c.38-.48.51-.58,1.48-.94,1.58-.57,9.48-.47,14.56,2.83a50.34,50.34,0,0,1,7.29,4.81c3.1,2.5,5,6,6.93,9.38.46.83.92,1.65,1.39,2.46a76.2,76.2,0,0,0,4.3,6.36c.15.21.45.68.84,1.28.85,1.32,3.1,4.83,3.74,5.08l17.94.21a.52.52,0,0,1,.35.16.47.47,0,0,1,.14.37l-.44,10.08a.49.49,0,0,1-.45.47L491,376.26a.51.51,0,0,1-.41-.15l-12.72-13.26a8.3,8.3,0,0,1-2.18,1.26c-1.12.53-2.4,1.14-2.81,1.86l-5.53,15.45L469,383.1a.52.52,0,0,1,0,.67c-.06.07-5.46,6.89-6.15,8s-2.57,3.74-2.64,3.85a.5.5,0,0,1-.33.2.51.51,0,0,1-.38-.1l-2.24-1.68-1,4.49a.49.49,0,0,1-.55.38L439,396.58l-16.47,5.65-4.47,3A.47.47,0,0,1,417.75,405.37Zm40.87-74a8.46,8.46,0,0,0-2.24.21c-.77.28-.78.3-1,.62a11.35,11.35,0,0,1-.92,1,23.81,23.81,0,0,1-4.61,3.22,23.81,23.81,0,0,0-4.34,3c-5.3,5.19-7.69,12.4-10,19.37l-.53,1.61c-.56,1.67-1,3.46-1.41,5.35a37.73,37.73,0,0,1-2.72,8.62c-.09.16-8.32,15-9.25,17.55h0c-.74,2-2.37,8.92-3,11.78l3.47-2.38.12-.06,16.65-5.71a.62.62,0,0,1,.23,0l16.44,2.32,1.09-4.79a.51.51,0,0,1,.31-.36.52.52,0,0,1,.48.07l2.44,1.84c.57-.78,1.77-2.48,2.3-3.36.64-1.06,4.81-6.36,5.95-7.79l-1.59-1.59a.52.52,0,0,1-.12-.53L472,365.55c.61-1.07,2-1.75,3.3-2.34.78-.37,2-.93,2-1.27a.5.5,0,0,1,.35-.38.52.52,0,0,1,.5.13l13,13.55,21-2.06.4-9.13L495,363.83c-.75,0-1.76-1.25-4.51-5.53-.37-.58-.66-1-.81-1.23a77.5,77.5,0,0,1-4.35-6.45c-.48-.81-.94-1.64-1.4-2.47-1.84-3.3-3.74-6.71-6.69-9.09a49.24,49.24,0,0,0-7.17-4.73C466.54,332,461.55,331.37,458.62,331.37Zm-37.54,60.41h0Z" style="fill:#263238"></path><polygon points="514.61 363.55 514.56 374.65 509.67 375.22 509.37 362.88 514.61 363.55" style="fill:#fff"></polygon><path d="M509.67,375.72a.47.47,0,0,1-.32-.12.5.5,0,0,1-.18-.36l-.3-12.35a.45.45,0,0,1,.16-.38.5.5,0,0,1,.4-.13l5.24.68a.5.5,0,0,1,.44.5l-.05,11.09a.51.51,0,0,1-.44.5l-4.89.57Zm.21-12.27.28,11.21,3.9-.46.05-10.21Z" style="fill:#263238"></path><path d="M447.39,371.76a.5.5,0,0,1-.35-.15.48.48,0,0,1,0-.7l5.38-5.38a91.53,91.53,0,0,1-11.11,3.69.49.49,0,0,1-.6-.37.5.5,0,0,1,.38-.6,110.62,110.62,0,0,0,13.22-4.56.5.5,0,0,1,.55.81l-7.11,7.11A.51.51,0,0,1,447.39,371.76Z" style="fill:#263238"></path><path d="M456.8,386.9A19.66,19.66,0,0,1,453,386a.5.5,0,0,1-.32-.63.52.52,0,0,1,.64-.32,19.08,19.08,0,0,0,3.51.9c.59-.09,4.41-2.47,7.74-4.73a.5.5,0,1,1,.56.82C462.93,383.47,457.76,386.9,456.8,386.9Z" style="fill:#263238"></path><path d="M457.47,388.75a.5.5,0,0,1-.47-.33l-.67-1.85a.45.45,0,0,1,0-.28,50.94,50.94,0,0,1,1.86-6.73c.91-2.29,6.65-13.34,6.9-13.81a.5.5,0,0,1,.67-.21.49.49,0,0,1,.21.67c-.06.12-6,11.48-6.86,13.72a52.07,52.07,0,0,0-1.77,6.43l.62,1.72a.51.51,0,0,1-.3.64Z" style="fill:#263238"></path><polygon points="474.14 339.92 472.95 343.96 470.55 341.26 474.14 339.92" style="fill:#fff"></polygon><path d="M473,344.46a.52.52,0,0,1-.38-.17l-2.39-2.7a.5.5,0,0,1,.2-.8l3.58-1.34a.5.5,0,0,1,.52.1.51.51,0,0,1,.14.51l-1.19,4a.5.5,0,0,1-.37.35Zm-1.54-3,1.31,1.48.66-2.22Z" style="fill:#263238"></path><polygon points="469.38 335.39 474.14 339.92 467.18 342.84 466.05 338.73 469.38 335.39" style="fill:#fff"></polygon><path d="M467.18,343.34a.42.42,0,0,1-.22,0,.45.45,0,0,1-.26-.31l-1.13-4.12a.51.51,0,0,1,.12-.49L469,335a.5.5,0,0,1,.69,0l4.76,4.52a.51.51,0,0,1,.15.45.51.51,0,0,1-.3.38l-7,2.92A.43.43,0,0,1,467.18,343.34Zm-.57-4.47.9,3.29,5.73-2.41-3.85-3.66Z" style="fill:#263238"></path><path d="M485,310.81a37.17,37.17,0,0,1,1,5c.5,3.41-1.39,4.54-1.77,6.69s2.15,5.17,2,6-2.39.89-2.39.89-4.46,7.82-5.72,7.95-5.51-3.54-5.51-3.54l-4.79,5.3s.5,4.16-.63,3.65a19,19,0,0,1-5.68-5,23.81,23.81,0,0,0-5.29-4.67s3.15-4,3.78-6.43-2-.5-2.52-6.31,1.76-11.47,5.8-14.63,11.85-4.54,17.4-1.51S485.34,309.8,485,310.81Z" style="fill:#fff"></path><path d="M467.36,343.38a.84.84,0,0,1-.38-.08c-1.21-.53-3.38-2.18-5.86-5.18a23.77,23.77,0,0,0-5.17-4.56.49.49,0,0,1-.14-.73s3.1-4,3.7-6.26c.18-.69.08-.76-.37-1.12-.74-.57-1.86-1.44-2.17-5-.51-5.91,1.84-11.82,6-15.07s12.15-4.73,18-1.56c5.2,2.84,5.16,5.34,4.58,7a44.48,44.48,0,0,1,1,4.95,7.15,7.15,0,0,1-1,4.9,6.67,6.67,0,0,0-.77,1.95c-.21,1.15.63,2.75,1.25,3.93a4.34,4.34,0,0,1,.77,2.1c-.16,1.07-1.78,1.28-2.6,1.31-1.74,3-4.68,7.82-6,7.95s-4.19-2.22-5.51-3.34l-4.32,4.77c.14,1.31.23,3.34-.49,3.88A.83.83,0,0,1,467.36,343.38ZM456.93,333a24.28,24.28,0,0,1,5,4.47,19.26,19.26,0,0,0,5.39,4.86,9,9,0,0,0,0-3.09.49.49,0,0,1,.13-.4l4.79-5.3a.5.5,0,0,1,.7,0c2,1.7,4.46,3.46,5.13,3.42.7-.21,3.32-4.16,5.33-7.7a.5.5,0,0,1,.44-.25c1,0,1.87-.28,1.9-.46a6.42,6.42,0,0,0-.67-1.5c-.72-1.37-1.61-3.08-1.35-4.57a7.74,7.74,0,0,1,.87-2.23,6.17,6.17,0,0,0,.9-4.29,37.57,37.57,0,0,0-1-5,.53.53,0,0,1,0-.33c.32-.84,1.16-3.09-4.06-5.94-5.44-3-13-1.55-16.85,1.47s-6.1,8.61-5.61,14.19c.27,3.14,1.14,3.82,1.78,4.31a1.71,1.71,0,0,1,.72,2.17C459.94,328.85,457.77,331.88,456.93,333Z" style="fill:#263238"></path><polygon points="457.96 328.97 470.09 342.3 466.67 348.21 454.06 332.88 457.96 328.97" style="fill:#fff"></polygon><path d="M466.67,348.71a.53.53,0,0,1-.39-.18l-12.6-15.33a.49.49,0,0,1,0-.67l3.89-3.91a.51.51,0,0,1,.37-.15.48.48,0,0,1,.36.16L470.46,342a.51.51,0,0,1,.07.59l-3.43,5.91a.5.5,0,0,1-.39.25Zm-11.93-15.8,11.85,14.43,2.89-5L457.94,329.7Z" style="fill:#263238"></path><path d="M483.8,305.56s5,.88,5.41,2.49-1.61,2.77-1.75,4.53,2.05,2.93,1.61,4.39a25.33,25.33,0,0,1-1.76,3.8,28.9,28.9,0,0,0-1.34-4.92c-.56-.93-.87-3.74-1-5s-2.77-3.2-2.77-3.2S481.17,304.1,483.8,305.56Z" style="fill:#263238"></path><path d="M487.31,321.27h-.08a.51.51,0,0,1-.41-.4,25.57,25.57,0,0,0-1.28-4.76c-.56-.94-.87-3.3-1.08-5.25-.07-.74-1.54-2.11-2.56-2.85a.49.49,0,0,1-.19-.26c-.1-.35-.56-2.12.29-2.8.46-.37,1.12-.32,2,.13,1,.19,5.24,1.06,5.73,2.83a3.41,3.41,0,0,1-.87,2.83,4.16,4.16,0,0,0-.87,1.88,3.18,3.18,0,0,0,.8,1.95,3,3,0,0,1,.78,2.54,26.41,26.41,0,0,1-1.79,3.91A.5.5,0,0,1,487.31,321.27Zm-4.68-14c.61.46,2.69,2.11,2.83,3.45a15.78,15.78,0,0,0,.94,4.84,18.2,18.2,0,0,1,1.12,3.72,18.23,18.23,0,0,0,1.07-2.5c.15-.51-.22-1.06-.65-1.69a4,4,0,0,1-1-2.59,5.08,5.08,0,0,1,1-2.36c.49-.72.91-1.34.73-2-.24-.89-3.14-1.8-5-2.13l-.15-.05c-.59-.33-.87-.32-.94-.27S482.46,306.61,482.63,307.31Z" style="fill:#263238"></path><path d="M463.27,305.76c4-3.15,11.85-4.54,17.4-1.51s4.67,5.55,4.29,6.56c0,0-.07,1.37-3.9,3.29s-4.92,1.09-5.88,3.69-5.75,4.52-6.84,3.83a1.84,1.84,0,0,0-2.74,1,5.8,5.8,0,0,1-.73,1.52,1.64,1.64,0,0,1-.21,1.59c-1,1.14-4.17.13-4.17.13l-.43,0c-.23-1.13-2.17-.57-2.59-5.46C457,314.59,459.23,308.92,463.27,305.76Z" style="fill:#263238"></path><path d="M463,326.73a9.41,9.41,0,0,1-2.52-.41l-.34,0a.48.48,0,0,1-.52-.4c0-.15-.14-.25-.44-.48-.74-.58-1.85-1.45-2.16-5-.51-5.91,1.84-11.82,6-15.07h0c4.12-3.21,12.15-4.73,18-1.56,5.31,2.9,5.15,5.44,4.54,7.12-.07.44-.6,1.83-4.16,3.61a23.41,23.41,0,0,1-3.15,1.29c-1.46.49-1.94.65-2.49,2.13-.66,1.8-2.91,3.28-4.85,3.94-.71.25-2,.59-2.72.15a1.27,1.27,0,0,0-1.14-.16,1.4,1.4,0,0,0-.87.86,7.74,7.74,0,0,1-.66,1.46A2,2,0,0,1,465,326,2.73,2.73,0,0,1,463,326.73Zm-2.46-1.41.16,0c.93.3,3,.69,3.63,0,.22-.25.25-.55.1-1.14a.52.52,0,0,1,.09-.42,5.88,5.88,0,0,0,.67-1.4,2.42,2.42,0,0,1,1.47-1.46,2.31,2.31,0,0,1,2,.26,3.09,3.09,0,0,0,1.88-.24c1.65-.57,3.68-1.86,4.23-3.34.71-1.93,1.61-2.24,3.11-2.74a22.31,22.31,0,0,0,3-1.23c3.39-1.69,3.62-2.88,3.62-2.89a.5.5,0,0,1,0-.13c.32-.84,1.16-3.09-4.06-5.94-5.44-3-13-1.55-16.85,1.47h0c-3.9,3-6.1,8.61-5.62,14.19.28,3.14,1.15,3.82,1.79,4.32a2.33,2.33,0,0,1,.64.65h.1Z" style="fill:#263238"></path><path d="M480.72,323.74c-.26.69-.18,1.35.18,1.49s.86-.31,1.12-1,.17-1.34-.19-1.48S481,323.06,480.72,323.74Z" style="fill:#263238"></path><path d="M482.21,331.36a4.33,4.33,0,0,1-3.72-2.34.52.52,0,0,1,.19-.69.51.51,0,0,1,.68.19,3.29,3.29,0,0,0,2.9,1.84.51.51,0,0,1,.54.46.5.5,0,0,1-.46.53Z" style="fill:#263238"></path><path d="M483.45,321.9a.48.48,0,0,1-.4-.2c-.11-.14-1.09-1.33-2.86,0a.51.51,0,0,1-.7-.1.5.5,0,0,1,.1-.7,3.44,3.44,0,0,1,2.54-.8,2.77,2.77,0,0,1,1.72,1,.5.5,0,0,1-.11.7A.52.52,0,0,1,483.45,321.9Z" style="fill:#263238"></path><path d="M468.94,326.82h-1.13c-1.31,0-2.86-1.83-3.16-2.2a.5.5,0,1,1,.77-.63c.62.76,1.77,1.83,2.39,1.83h1.13a.5.5,0,0,1,.5.5A.5.5,0,0,1,468.94,326.82Z" style="fill:#263238"></path><polygon points="472.6 333.89 469.98 331.75 470.25 336.53 472.6 333.89" style="fill:#263238"></polygon><path d="M470.25,337a.44.44,0,0,1-.16,0,.51.51,0,0,1-.33-.45l-.28-4.79a.51.51,0,0,1,.27-.47.5.5,0,0,1,.55.06l2.62,2.14a.52.52,0,0,1,.18.35.49.49,0,0,1-.12.37l-2.35,2.65A.53.53,0,0,1,470.25,337Zm.3-4.18.13,2.45,1.2-1.35Z" style="fill:#263238"></path><path d="M471,357.75l13.8,9.38s9,3.13,17.37,5.24,16.34,3.89,17.19,3.88,9.39-2.58,10.12-2.64,6.87,3.76,6.87,3.76.32,3.67,0,4.23-1.35-.1-1.35-.1a12.6,12.6,0,0,1-1.45,2.39c-.44.34-1.33,1.59-1.85.92a28.45,28.45,0,0,1-1.67-3.76,60.25,60.25,0,0,1-6.31.85c-1.69,0-10.9-1-13-1.16S483.55,378,483,377.36s-22.1-16-22.1-16Z" style="fill:#fff"></path><path d="M532.09,385.5H532a.91.91,0,0,1-.69-.39,21.56,21.56,0,0,1-1.6-3.5,52.39,52.39,0,0,1-6,.79h0c-1.46,0-7.38-.59-10.93-.95l-2.12-.21c-1.11-.11-27.28-2.61-28-3.57-.61-.64-13.49-9.84-22-15.86a.5.5,0,0,1,.12-.88l10.06-3.65a.48.48,0,0,1,.45.05L485,366.68c.81.28,9.37,3.21,17.26,5.2,8.51,2.15,16.27,3.87,17.06,3.87h0c.43,0,3.67-.92,5.81-1.51,2.5-.7,3.93-1.1,4.28-1.13.75-.06,4.31,2.05,7.17,3.84a.46.46,0,0,1,.23.38c.1,1.14.3,3.87,0,4.49a.85.85,0,0,1-.56.47,1.69,1.69,0,0,1-1-.12,8.36,8.36,0,0,1-1.36,2.11,4.36,4.36,0,0,0-.32.31A2.4,2.4,0,0,1,532.09,385.5Zm-2-4.95a.51.51,0,0,1,.47.32,25,25,0,0,0,1.6,3.64,3.48,3.48,0,0,0,.73-.63,4.51,4.51,0,0,1,.42-.39,11.85,11.85,0,0,0,1.3-2.2.49.49,0,0,1,.31-.27.52.52,0,0,1,.4.06,1.66,1.66,0,0,0,.71.25,32,32,0,0,0-.14-3.66,46.36,46.36,0,0,0-6.38-3.56c-.25,0-2.27.59-4.06,1.09a55.15,55.15,0,0,1-6.07,1.55h0c-1,0-9.21-1.85-17.31-3.9-8.3-2.09-17.32-5.21-17.41-5.24l-.12-.06-13.59-9.25L462,361.55c5.62,4,20,14.2,21.34,15.42,1.43.6,21.26,2.69,27.41,3.27l2.13.22c3.3.33,9.43.94,10.82.94h0c1.63,0,6.18-.84,6.23-.84Z" style="fill:#263238"></path><path d="M535,382a.51.51,0,0,1-.49-.36l-.82-2.92L531,376.88a.5.5,0,0,1,.56-.83l2.84,1.95a.45.45,0,0,1,.2.27l.88,3.1a.51.51,0,0,1-.35.62Z" style="fill:#263238"></path><path d="M533.58,384.39a.5.5,0,0,1-.49-.42l-.58-3.53-2.31-2.74a.51.51,0,0,1,.06-.71.52.52,0,0,1,.71.06l2.4,2.86a.59.59,0,0,1,.11.24l.6,3.66a.5.5,0,0,1-.41.57Z" style="fill:#263238"></path><path d="M531.73,385.31h0a.51.51,0,0,1-.49-.51l.07-3.44-2.18-2.94a.5.5,0,1,1,.8-.6l2.29,3.08a.5.5,0,0,1,.1.31l-.08,3.61A.5.5,0,0,1,531.73,385.31Z" style="fill:#263238"></path><path d="M452.83,342.85s5.81,1.27,7.36,3.07,23.37,19,23.37,19l19.64,6-2.5,9.19-16.47-.43-38.52-19.3" style="fill:#4FC671"></path><path d="M500.7,380.6h0l-16.46-.43a.46.46,0,0,1-.21-.05l-38.53-19.31a.5.5,0,0,1-.22-.67.49.49,0,0,1,.67-.22l38.43,19.25,16,.42,2.27-8.35-19.17-5.85a.56.56,0,0,1-.17-.09c-.89-.7-21.87-17.24-23.44-19.06-1.18-1.37-5.52-2.56-7.09-2.91a.5.5,0,1,1,.21-1c.25.05,6,1.33,7.64,3.23,1.2,1.39,15.67,12.92,23.23,18.87l19.54,6a.5.5,0,0,1,.34.61l-2.5,9.19A.5.5,0,0,1,500.7,380.6Z" style="fill:#263238"></path><polygon points="505.21 370.62 502.02 381.85 497.22 381.53 499.96 368.98 505.21 370.62" style="fill:#fff"></polygon><path d="M502,382.35h0l-4.8-.32a.49.49,0,0,1-.37-.2.48.48,0,0,1-.09-.4l2.74-12.55a.51.51,0,0,1,.24-.33.56.56,0,0,1,.4-.05l5.25,1.64a.5.5,0,0,1,.33.61L502.5,382A.49.49,0,0,1,502,382.35Zm-4.19-1.28,3.82.26L504.59,371l-4.26-1.33Z" style="fill:#263238"></path></g><g id="freepik--character-2--inject-71"><path d="M337.23,358.59,332,410.75l8.22,1.28,12.9-49.47,2.13-.29L367,409.62h9.93l-3.55-24.1-2.83-37.71-7.23-.56s-9.5,6.66-14.89,8.08a39.35,39.35,0,0,1-11.62.85Z" style="fill:#adadad"></path><path d="M340.21,412.53h-.08l-8.22-1.27a.51.51,0,0,1-.42-.55l5.24-52.09-.41-2.35a.49.49,0,0,1,.12-.42.5.5,0,0,1,.41-.16,38.75,38.75,0,0,0,11.46-.84c5.23-1.38,14.63-7.94,14.72-8a.49.49,0,0,1,.33-.09l7.23.57a.49.49,0,0,1,.46.46l2.83,37.7,3.54,24.07a.52.52,0,0,1-.11.4.52.52,0,0,1-.38.17H367a.49.49,0,0,1-.48-.38l-11.66-46.91-1.35.18L340.7,412.16A.5.5,0,0,1,340.21,412.53Zm-7.68-2.2,7.31,1.14,12.79-49a.49.49,0,0,1,.42-.37l2.12-.28a.5.5,0,0,1,.55.37l11.68,47h9l-3.46-23.53-2.81-37.31-6.62-.52c-1.27.88-9.79,6.71-14.9,8.05a38.33,38.33,0,0,1-11.15.91l.32,1.78a.33.33,0,0,1,0,.14Z" style="fill:#263238"></path><path d="M330,408.49l12.05,1.27L337.8,428.9l-2.55,8.93s-.14,2.13-.85,2.69-5.67,1-7.94.71-3.68-.71-2.55-3.12,4.25-10.06,4.54-11.05,1.7-4.68,1.7-4.68Z" style="fill:#263238"></path><path d="M328.26,441.82a16,16,0,0,1-1.86-.09c-1.39-.17-2.67-.41-3.18-1.33a2.74,2.74,0,0,1,.24-2.5c1.13-2.41,4.23-10,4.5-11s1.46-4.05,1.69-4.63l-.15-13.8a.48.48,0,0,1,.17-.37.47.47,0,0,1,.39-.13l12.05,1.27a.5.5,0,0,1,.35.21.52.52,0,0,1,.08.4L338.29,429l-2.54,8.91c0,.49-.23,2.35-1,3S330.71,441.82,328.26,441.82ZM330.51,409l.14,13.33a.41.41,0,0,1,0,.19s-1.41,3.67-1.68,4.63-3.42,8.7-4.57,11.14c-.35.74-.44,1.27-.26,1.59.28.51,1.4.69,2.42.82,2.37.3,7-.21,7.57-.61a4.58,4.58,0,0,0,.66-2.33.43.43,0,0,1,0-.11l2.55-8.93,4.13-18.56Z" style="fill:#263238"></path><path d="M365.3,408.06l3.12,24.24s.14,6.66,1,6.95,10.92.42,11.34,0,.57-1.42-.42-3.26-4.54-6.67-4.54-6.67l2.41-21.4Z" style="fill:#263238"></path><path d="M377,440c-3.4,0-7.67-.26-7.72-.28-.3-.1-1.19-.39-1.34-7.41l-3.11-24.19a.47.47,0,0,1,.12-.39.47.47,0,0,1,.37-.17l12.9-.14a.54.54,0,0,1,.37.16.48.48,0,0,1,.13.39l-2.39,21.22c.63.86,3.55,4.88,4.46,6.56,1.27,2.37.76,3.43.34,3.85S379.05,440,377,440Zm-7.34-1.21a73.58,73.58,0,0,0,10.81,0c.23-.33.21-1.18-.56-2.62-1-1.79-4.46-6.55-4.5-6.6a.49.49,0,0,1-.09-.35l2.34-20.85-11.77.13,3.05,23.69C369,435,369.27,438.22,369.64,438.79Zm0,0Z" style="fill:#263238"></path><path d="M335.39,306l-3.12,1.56,8.79,51.18s7.52.42,12.34-1.42,8.36-6.38,8.36-6.38-1.3-30-5.25-38.13-7.65-14.18-7.65-14.18Z" style="fill:#fff"></path><path d="M343,359.27c-1.15,0-1.91,0-2,0a.51.51,0,0,1-.46-.42l-8.79-51.17a.49.49,0,0,1,.27-.53l3.11-1.56,13.46-7.37a.5.5,0,0,1,.67.18c0,.06,3.76,6.16,7.67,14.22s5.25,37.1,5.3,38.33a.49.49,0,0,1-.11.33,22.7,22.7,0,0,1-8.58,6.54C350.2,359.07,345.63,359.27,343,359.27Zm-1.55-1c1.6.05,7.69.14,11.73-1.41a21.91,21.91,0,0,0,8-6.08c-.12-2.56-1.49-30.13-5.19-37.74-3.31-6.83-6.49-12.24-7.38-13.73l-13.05,7.14h0l-2.79,1.39ZM335.39,306h0Z" style="fill:#263238"></path><path d="M347,309.39s8.11,15.89,9.54,21.81-.22,9.64,1.42,14.14a70,70,0,0,0,5.48,10.52l8.11-7s-2.52-23.67-5.81-31.56S362,308.51,362,305.66s-2.85-12.27-3.51-12.38-10.74.66-14.25,4.6Z" style="fill:#4FC671"></path><path d="M363.42,356.36h-.07a.51.51,0,0,1-.35-.22,69.37,69.37,0,0,1-5.53-10.62,18.31,18.31,0,0,1-.82-6.93,27,27,0,0,0-.62-7.26c-1.39-5.8-9.41-21.55-9.49-21.7a.56.56,0,0,1,0-.12L343.76,298a.49.49,0,0,1,.11-.45c3.6-4.05,13.84-4.91,14.7-4.77,1.3.22,3.93,10.66,3.93,12.88,0,2.59.36,3.45,3.15,10.13l.54,1.3c3.27,7.86,5.74,30.73,5.84,31.7a.5.5,0,0,1-.17.43l-8.11,7A.55.55,0,0,1,363.42,356.36Zm-16-47.15c.6,1.19,8.15,16.08,9.54,21.87a28.27,28.27,0,0,1,.65,7.52,17.37,17.37,0,0,0,.76,6.56,65.94,65.94,0,0,0,5.13,9.94l7.47-6.46c-.29-2.6-2.71-23.88-5.75-31.17l-.54-1.29c-2.79-6.7-3.22-7.73-3.22-10.52s-2.52-10.82-3.21-11.89c-1.25,0-10.12.77-13.5,4.26Zm10.77-15.52Z" style="fill:#263238"></path><path d="M357.15,326.3a.52.52,0,0,1-.46-.31.5.5,0,0,1,.27-.65c2.94-1.26,8.31-8.29,8.37-8.36a.5.5,0,1,1,.79.6c-.22.3-5.59,7.31-8.77,8.68A.65.65,0,0,1,357.15,326.3Z" style="fill:#263238"></path><path d="M359.15,335.15a.5.5,0,0,1-.48-.34.5.5,0,0,1,.32-.63c3.8-1.27,7.69-6.21,7.73-6.26a.5.5,0,0,1,.7-.08.5.5,0,0,1,.09.7c-.17.21-4.13,5.22-8.21,6.58Z" style="fill:#263238"></path><path d="M359.81,344.89a.5.5,0,0,1-.13-1c4-1.06,7.45-5.32,7.49-5.37a.5.5,0,0,1,.7-.08.52.52,0,0,1,.08.71c-.15.18-3.7,4.57-8,5.7Z" style="fill:#263238"></path><path d="M354.28,315.89a.5.5,0,0,1-.23-.94,53.45,53.45,0,0,0,6.78-4.6.5.5,0,0,1,.7.09.5.5,0,0,1-.08.7,55.12,55.12,0,0,1-6.95,4.7A.44.44,0,0,1,354.28,315.89Z" style="fill:#263238"></path><path d="M339.84,314.83s3.68,3.83,4.45,11,1.07,17.49,1.07,25.93a112.45,112.45,0,0,1-2.15,18.88s-9-4.76-10.58-6.45-.77-22.86-.77-25,1.23-8-1.84-13.5-6.45-8.75-7.37-10.13-2.3-2,.62-3.83a78.16,78.16,0,0,0,7.67-5.68C332.17,305,339.84,314.83,339.84,314.83Z" style="fill:#4FC671"></path><path d="M343.21,371.17a.46.46,0,0,1-.23-.05c-.37-.2-9.15-4.82-10.72-6.55-1-1.13-1.3-7.85-.94-23.22,0-1.06,0-1.81,0-2.13s0-.91.09-1.53c.21-2.74.57-7.33-1.87-11.73a49.94,49.94,0,0,0-6-8.42,18.21,18.21,0,0,1-1.34-1.67c-.15-.22-.31-.42-.46-.61a2.33,2.33,0,0,1-.75-1.81c.11-.68.7-1.32,2-2.12a77.19,77.19,0,0,0,7.61-5.62.85.85,0,0,1,.67-.21c2,.19,7.75,7.48,8.94,9,.32.34,3.81,4.21,4.56,11.32.68,6.34,1.08,16.05,1.08,26a114,114,0,0,1-2.16,19,.5.5,0,0,1-.27.35A.54.54,0,0,1,343.21,371.17Zm-12-64.67h0a71.22,71.22,0,0,1-7.65,5.68c-1.18.75-1.48,1.2-1.52,1.44s.18.56.55,1a7.53,7.53,0,0,1,.51.68c.24.36.7.9,1.27,1.57a50.53,50.53,0,0,1,6.11,8.59c2.59,4.66,2.22,9.43,2,12.29,0,.58-.08,1.08-.08,1.45s0,1.09,0,2.15c-.41,17.55.14,21.94.68,22.53,1.12,1.23,7,4.51,9.85,6a110.11,110.11,0,0,0,2-18.12c0-9.9-.4-19.57-1.07-25.87a19.63,19.63,0,0,0-4.31-10.76.08.08,0,0,1,0,0C336.19,311,332.12,306.5,331.19,306.5Z" style="fill:#263238"></path><path d="M340.61,336a50.27,50.27,0,0,1-7.22-.67.5.5,0,1,1,.16-1c.07,0,6.59,1.08,9.55.45a.5.5,0,1,1,.21,1A13.46,13.46,0,0,1,340.61,336Z" style="fill:#263238"></path><path d="M342.23,346.46a35.48,35.48,0,0,1-9.13-1.37.5.5,0,1,1,.3-1,34.15,34.15,0,0,0,9.79,1.31.49.49,0,0,1,.52.48.5.5,0,0,1-.48.52Z" style="fill:#263238"></path><path d="M342.6,356.49a35.31,35.31,0,0,1-9.74-1.89.5.5,0,0,1,.33-.94c.07,0,6.67,2.3,10.84,1.74a.5.5,0,0,1,.56.43.49.49,0,0,1-.43.56A11.26,11.26,0,0,1,342.6,356.49Z" style="fill:#263238"></path><path d="M334.19,324.35c-2.5,0-4.63-.11-4.81-.13a.49.49,0,0,1-.47-.52.48.48,0,0,1,.52-.47c.09,0,9.31.5,12.05-.56a.51.51,0,0,1,.65.29.5.5,0,0,1-.29.65C340.28,324.21,337,324.35,334.19,324.35Z" style="fill:#263238"></path><path d="M330.17,305s-1.53,6.75-.31,7.82,10,2,10,2-6.46-6.78-7.07-8.76S330.94,304.39,330.17,305Z" style="fill:#4FC671"></path><path d="M339.84,315.33h0c-1.49-.15-9-1-10.25-2.11s-.23-6.66.14-8.31a.53.53,0,0,1,.18-.28,2.07,2.07,0,0,1,1.93-.5,2.4,2.4,0,0,1,1.46,1.8c.47,1.54,5.17,6.7,6.95,8.56a.52.52,0,0,1,.09.57A.51.51,0,0,1,339.84,315.33Zm-9.22-10c-.68,3.08-1,6.64-.43,7.16s5.05,1.32,8.35,1.72c-1.87-2-5.75-6.33-6.25-8-.14-.45-.39-1-.79-1.14A1.07,1.07,0,0,0,330.62,305.3Z" style="fill:#263238"></path><path d="M332.77,306.07a11.25,11.25,0,0,0,4.61,3.85c3.38,1.68,8.29.76,8.59-3.38s-1.68-9.66-2.91-12.27a34.12,34.12,0,0,0-2.15-4,4.39,4.39,0,0,0-2,3.83,15.11,15.11,0,0,1-3.53,8.29,12.65,12.65,0,0,1-3.22,2.61Z" style="fill:#fff"></path><path d="M340.8,311.21a8.17,8.17,0,0,1-3.64-.85,11.59,11.59,0,0,1-4.82-4h0l-.61-1.07a.48.48,0,0,1,0-.39.5.5,0,0,1,.25-.3,12.29,12.29,0,0,0,3.08-2.5,14.72,14.72,0,0,0,3.4-8,4.85,4.85,0,0,1,2.27-4.26.51.51,0,0,1,.64.17,34.7,34.7,0,0,1,2.18,4.05c1.25,2.66,3.28,8.28,3,12.53a4.58,4.58,0,0,1-2.39,3.83A6.61,6.61,0,0,1,340.8,311.21Zm-7.6-5.39a11,11,0,0,0,4.41,3.65,6.63,6.63,0,0,0,6,.07,3.65,3.65,0,0,0,1.89-3c.3-4-1.67-9.46-2.87-12-.81-1.72-1.49-2.9-1.84-3.49a4.25,4.25,0,0,0-1.35,3.15,15.65,15.65,0,0,1-3.66,8.6,14.26,14.26,0,0,1-2.91,2.45Z" style="fill:#263238"></path><path d="M338.37,302.9,336,308.69l-3.19-2.62S337.2,304.58,338.37,302.9Z" style="fill:#263238"></path><path d="M336,309.19a.52.52,0,0,1-.32-.11l-3.19-2.63a.49.49,0,0,1-.17-.47.51.51,0,0,1,.33-.39c1.19-.4,4.47-1.71,5.35-3a.5.5,0,0,1,.87.48l-2.41,5.79a.51.51,0,0,1-.34.3Zm-2.2-2.95,2,1.64,1.36-3.26A20.46,20.46,0,0,1,333.76,306.24Z" style="fill:#263238"></path><path d="M318.59,276.05s-4.59,5.24-4.85,9.07,3.32,3.07,3.83,4.73a65,65,0,0,1,1.94,7.31c.08,1.17-1.51,9.92.38,11.11s3.15,1.38,3.41,2-.1,2.44.43,3.34,1.26.74,1.71,1-.1,1.53,2.15,2.72,4.69.4,4.79-.23-1.79-3.27-1.06-4.17,2.09-1.16,1.1-2.52-1.89-.64-1.43-1.81,1-1.71,1.1-2.7-.26-1.54-1.42-2.72.72-.18-1.07-2.36-2.15-2.36-3.23-2.91-2-.92-2-.92-4.14-7.16-4.26-8.57,13.79-3.7,15.2-2.93,6.51,5.49,7.4,4.72.77-4.47-1.27-10.86-8.69-8-14.95-7.91S318.59,276.05,318.59,276.05Z" style="fill:#263238"></path><path d="M330.08,318.47a5.86,5.86,0,0,1-2.72-.67,3.62,3.62,0,0,1-2.16-2.55c0-.09-.06-.21-.08-.25s-.14,0-.29-.06a2.15,2.15,0,0,1-1.53-1.06,4.84,4.84,0,0,1-.38-2.36,4.62,4.62,0,0,0-.08-1c-.07-.18-.56-.4-1.07-.64a17.41,17.41,0,0,1-2.15-1.14c-1.56-1-1.26-5.1-.77-9.6.09-.85.18-1.66.16-1.9a59.08,59.08,0,0,0-1.92-7.19c-.11-.39-.54-.6-1.23-.91-1.18-.53-2.8-1.26-2.62-4,.25-3.77,4.36-8.65,4.92-9.3.29-.68,2.24-4.71,8.34-4.83,5.79-.13,13.18,1.21,15.43,8.26,1.95,6.07,2.37,10.33,1.13,11.39-.83.71-2.47-.44-5.78-3a23.86,23.86,0,0,0-2.19-1.63c-1.36-.68-13.34,1.46-14.45,2.55.22,1.11,2.57,5.46,4.1,8.12.31.14,1,.45,1.86.87,1.19.61,1.61.88,3.39,3,.87,1.06,1.09,1.61.83,2.1l.2.23c1.16,1.17,1.69,1.86,1.57,3.11a4.44,4.44,0,0,1-.63,1.77,11,11,0,0,0-.5,1.07,1.22,1.22,0,0,0-.07.2l.08,0a3.1,3.1,0,0,1,1.36,1.1c1,1.37.09,2.09-.51,2.57a3.62,3.62,0,0,0-.61.56c-.26.33.36,1.67.65,2.31a3.2,3.2,0,0,1,.51,1.61c0,.23-.19.57-.76.86A4.74,4.74,0,0,1,330.08,318.47ZM327.18,272h-.66c-5.82.12-7.39,4.1-7.46,4.27a.38.38,0,0,1-.09.15c0,.05-4.49,5.16-4.73,8.78-.14,2,.92,2.51,2,3,.75.33,1.52.68,1.78,1.52a64.4,64.4,0,0,1,2,7.42,16.13,16.13,0,0,1-.17,2.08c-.25,2.37-.85,7.91.31,8.65a16.62,16.62,0,0,0,2,1.07c.78.37,1.35.63,1.57,1.17a4.17,4.17,0,0,1,.16,1.43,4.36,4.36,0,0,0,.24,1.85,1.2,1.2,0,0,0,.91.6,2.29,2.29,0,0,1,.63.23,1.18,1.18,0,0,1,.47.81c.12.5.29,1.18,1.65,1.9,1.91,1,3.87.39,4.08.07,0-.07-.27-.59-.44-1-.56-1.19-1.18-2.55-.53-3.36a4.56,4.56,0,0,1,.77-.71c.62-.5.75-.61.32-1.2a2.14,2.14,0,0,0-1-.78c-.59-.26-.89-.61-.53-1.52a9.89,9.89,0,0,1,.55-1.16,3.7,3.7,0,0,0,.52-1.4c.07-.76-.16-1.18-1.29-2.32-.41-.42-.77-.86-.39-1.39a5.31,5.31,0,0,0-.71-1c-1.72-2.1-2-2.26-3.07-2.79s-1.93-.89-1.94-.9a.45.45,0,0,1-.24-.21c-.43-.74-4.2-7.3-4.33-8.77a1,1,0,0,1,.56-.89c2.2-1.45,13.85-3.36,15.37-2.53a21.14,21.14,0,0,1,2.34,1.72c1.29,1,4,3.13,4.58,3,.5-.45.61-3.68-1.5-10.28C339,273.32,332.52,272,327.18,272Zm-8.59,4.1h0Z" style="fill:#263238"></path><path d="M319.23,285.76a14.16,14.16,0,0,1,9.07-3.58c4.22-.12,9.2,3.71,9.2,3.71l.64-.77c.63-.76,3.06-1.15,4.21,2.3a3.65,3.65,0,0,1-1.66,4.73l-.26,1.78s.77,4.22-.89,7.29a9.35,9.35,0,0,1-6.77,4.85c-2.55.51-4.6-1.15-7.15-3.45s-6.51-9.2-8.05-12.77a8.59,8.59,0,0,1-.49-1.64A14.3,14.3,0,0,1,319.23,285.76Z" style="fill:#fff"></path><path d="M331.84,306.66c-2.28,0-4.2-1.55-6.56-3.67-2.6-2.34-6.58-9.23-8.17-12.95a8.22,8.22,0,0,1-.52-1.74.43.43,0,0,1,.05-.33,14,14,0,0,1,2.24-2.56h0a14.69,14.69,0,0,1,9.41-3.73c3.71-.1,7.85,2.62,9.12,3.53l.34-.41a2.31,2.31,0,0,1,2.19-.65c.73.14,2.09.73,2.88,3.11a4.15,4.15,0,0,1-1.67,5.2l-.21,1.47c.1.63.65,4.54-1,7.52a9.79,9.79,0,0,1-7.11,5.11A5.28,5.28,0,0,1,331.84,306.66Zm-14.23-18.35a7.5,7.5,0,0,0,.42,1.34c1.52,3.55,5.45,10.38,7.92,12.6s4.43,3.79,6.72,3.33a8.84,8.84,0,0,0,6.43-4.6c1.56-2.87.85-6.92.84-7a.43.43,0,0,1,0-.16l.25-1.78a.53.53,0,0,1,.29-.39c.1,0,2.38-1.15,1.4-4.11-.47-1.41-1.23-2.28-2.13-2.45a1.37,1.37,0,0,0-1.23.31l-.64.77a.51.51,0,0,1-.69.08c-.05,0-4.89-3.73-8.87-3.61a13.63,13.63,0,0,0-8.73,3.43h0A20.34,20.34,0,0,0,317.61,288.31Z" style="fill:#263238"></path><path d="M342.73,290.23a14.49,14.49,0,0,0-1.15,6.51c.39,3.07,3.07,6.39,2.56,8.69s-1.15,3.07-.38,4.21,3.7,2.69,5.1,1.66a6.87,6.87,0,0,0,2.05-2.42s-2.3,1.66-1.54-.51,2.94-1.15,3.2-3.71-1.92-4.85-1.53-6,2.17-3.32,1.53-5.75-1.53-3.06-4.34-5.74-2.81-3.33-3.45-4.73-3.2-1.53-3.2-1.53S342.73,288.32,342.73,290.23Z" style="fill:#263238"></path><path d="M347.69,312.14a3.46,3.46,0,0,1-.7-.07,6.22,6.22,0,0,1-3.65-2.15c-.69-1-.45-1.83-.1-3,.13-.44.27-.94.41-1.56.25-1.12-.42-2.64-1.14-4.25a16.06,16.06,0,0,1-1.42-4.26,14.56,14.56,0,0,1,1.14-6.68c0-2-1.13-9.07-1.14-9.15a.5.5,0,0,1,.12-.41.47.47,0,0,1,.4-.16c.12,0,2.87.16,3.62,1.82l.25.56c.43,1,.75,1.78,3.09,4l.8.76c2.24,2.12,3.07,2.91,3.68,5.23.53,2-.44,3.83-1.07,5a7.42,7.42,0,0,0-.47,1,3.67,3.67,0,0,0,.55,1.77,8.17,8.17,0,0,1,1,4.12,2.74,2.74,0,0,1-1.84,2.47,2.22,2.22,0,0,0-1.38,1.35,3.42,3.42,0,0,0-.12.42,3.77,3.77,0,0,0,.89-.48.5.5,0,0,1,.6,0,.48.48,0,0,1,.14.59,7.35,7.35,0,0,1-2.2,2.63A2.48,2.48,0,0,1,347.69,312.14Zm-5.51-30.66c.28,1.86,1.05,7.14,1.05,8.75a.45.45,0,0,1,0,.2,14.17,14.17,0,0,0-1.11,6.25,15.23,15.23,0,0,0,1.35,4c.78,1.77,1.52,3.44,1.2,4.88-.15.64-.3,1.17-.43,1.61-.35,1.2-.44,1.61,0,2.22a5.34,5.34,0,0,0,3,1.72,1.94,1.94,0,0,0,1.41-.19,6.33,6.33,0,0,0,1-.92.86.86,0,0,1-.51-.16c-.57-.42-.25-1.32-.15-1.62a3.2,3.2,0,0,1,1.89-1.91,1.77,1.77,0,0,0,1.28-1.68,7.26,7.26,0,0,0-.92-3.61,3.77,3.77,0,0,1-.59-2.5,9,9,0,0,1,.53-1.13c.6-1.14,1.42-2.7,1-4.33-.53-2-1.25-2.72-3.4-4.75l-.8-.76c-2.49-2.38-2.86-3.25-3.32-4.35-.08-.16-.15-.34-.24-.53C344,282,343,281.62,342.18,281.48Zm.55,8.75h0Z" style="fill:#263238"></path><path d="M326.84,300.47h-.11a1.81,1.81,0,0,1-1.23-.59.49.49,0,0,1,.05-.7.5.5,0,0,1,.7,0c.14.15.65.57,1.46-.17a.5.5,0,1,1,.67.75A2.3,2.3,0,0,1,326.84,300.47Z" style="fill:#263238"></path><path d="M328.42,302.38a4.56,4.56,0,0,1-.55,0,.5.5,0,0,1-.45-.55.49.49,0,0,1,.55-.44c.13,0,3.31.3,4.07-2.08a.5.5,0,1,1,.95.3C332.28,301.81,329.93,302.38,328.42,302.38Z" style="fill:#263238"></path><path d="M326.13,292.52a.5.5,0,0,1-.32-.88,7.87,7.87,0,0,1,4.38-1.65.49.49,0,0,1,.53.47.51.51,0,0,1-.48.53,7.09,7.09,0,0,0-3.79,1.41A.49.49,0,0,1,326.13,292.52Z" style="fill:#263238"></path><path d="M320.25,295.07a.49.49,0,0,1-.3-.1.51.51,0,0,1-.1-.7,3.14,3.14,0,0,1,3.51-1.06.5.5,0,0,1-.33.94,2.17,2.17,0,0,0-2.38.72A.48.48,0,0,1,320.25,295.07Z" style="fill:#263238"></path><path d="M329.11,294.35a3.06,3.06,0,0,1-1.12-.21.5.5,0,0,1-.28-.65.51.51,0,0,1,.65-.28,2,2,0,0,0,2.46-.82.5.5,0,1,1,.84.54A2.94,2.94,0,0,1,329.11,294.35Z" style="fill:#263238"></path><path d="M322.21,296.61H322a.5.5,0,0,1-.45-.54.51.51,0,0,1,.55-.45,2.05,2.05,0,0,0,1.62-.6.5.5,0,0,1,.76.66A3,3,0,0,1,322.21,296.61Z" style="fill:#263238"></path><path d="M321.66,283.84s2.17-.76,3.58,0,4.72,3.2,7.53,3.45,5.37-.51,5.37-2.17,6.25-1.53-3.45-4.34S322,282.44,321.66,283.84Z" style="fill:#263238"></path><path d="M333.84,287.84a10.54,10.54,0,0,1-1.11,0c-2.35-.21-5-1.81-6.67-2.87l-1.06-.64c-1.19-.65-3.16,0-3.17,0a.5.5,0,0,1-.51-.11.49.49,0,0,1-.14-.5,5.8,5.8,0,0,1,2.8-3.18c1.8-1,5.15-1.88,10.85-.23,4.75,1.37,5.69,2,5.78,2.78s-.54,1-1.09,1.31c-.36.2-.88.51-.88.73a2.08,2.08,0,0,1-.72,1.56A6.22,6.22,0,0,1,333.84,287.84ZM323.68,283a3.7,3.7,0,0,1,1.8.4c.29.16.67.39,1.11.66,1.63,1,4.11,2.53,6.23,2.72,1.92.18,3.66-.16,4.42-.85a1.06,1.06,0,0,0,.4-.82c0-.8.76-1.24,1.38-1.59a6.13,6.13,0,0,0,.56-.36c-.23-.24-1.18-.8-5-1.91-5.36-1.55-8.44-.78-10.08.14a5.49,5.49,0,0,0-1.9,1.71A6.27,6.27,0,0,1,323.68,283Z" style="fill:#263238"></path><path d="M246.9,419.24a2,2,0,0,1-1-3.75l165.46-92a2,2,0,0,1,1.95,3.5L247.87,419A1.91,1.91,0,0,1,246.9,419.24Z" style="fill:#fff"></path><path d="M246.9,419.74a2.5,2.5,0,0,1-1.22-4.69l165.46-92a2.51,2.51,0,0,1,3.4,1,2.47,2.47,0,0,1,.22,1.9,2.51,2.51,0,0,1-1.19,1.5L248.11,419.42A2.46,2.46,0,0,1,246.9,419.74Zm165.45-96a1.46,1.46,0,0,0-.72.19l-165.46,92a1.48,1.48,0,0,0-.72.89,1.5,1.5,0,0,0,.13,1.14,1.54,1.54,0,0,0,2,.59l165.46-92a1.44,1.44,0,0,0,.72-.9,1.5,1.5,0,0,0-1.45-1.91Z" style="fill:#263238"></path><path d="M368.9,340.51s-3,3.18-3.18,4.28-.87,4.6-.87,4.6l1.31,1s-1,4.16-.76,4.49.87.44,1.42.44S368.9,354,368.9,354s3.84-.11,4.5-2a19.63,19.63,0,0,0,.44-5.59v-5.7Z" style="fill:#fff"></path><path d="M366.82,355.81a2.29,2.29,0,0,1-1.84-.66c-.12-.18-.33-.5.62-4.57l-1.05-.79a.49.49,0,0,1-.19-.49s.65-3.51.87-4.61,2.8-4,3.31-4.52a.5.5,0,0,1,.39-.16l4.93.22a.51.51,0,0,1,.47.5v5.7a19.39,19.39,0,0,1-.46,5.76c-.69,1.94-3.9,2.25-4.77,2.3A5.27,5.27,0,0,1,366.82,355.81Zm-1-1.18a2,2,0,0,0,1,.18,7,7,0,0,0,1.76-1.2.54.54,0,0,1,.31-.12c1,0,3.59-.38,4-1.63a19.06,19.06,0,0,0,.42-5.4v-5.25l-4.22-.19c-1.18,1.29-2.77,3.23-2.9,3.87-.17.89-.65,3.41-.81,4.29l1.06.8a.49.49,0,0,1,.19.51A34.71,34.71,0,0,0,365.86,354.63Z" style="fill:#263238"></path><path d="M359.7,295.47s15.56,11.84,17.09,16.33-.32,31.13-.32,31.13l-8.22-1.1.54-13.7-4.16-13.92s-2.3-5.15-2.63-6.47-.66-4.38-.77-5.26S359.7,295.47,359.7,295.47Z" style="fill:#fff"></path><path d="M376.46,343.42h-.06l-8.22-1.09a.5.5,0,0,1-.43-.52l.54-13.62-4.14-13.84c-.07-.15-2.3-5.14-2.64-6.48-.28-1.14-.56-3.5-.71-4.77l-.06-.56c-.09-.67-1-4.84-1.53-7a.49.49,0,0,1,.22-.53.48.48,0,0,1,.57,0c.64.49,15.7,12,17.27,16.57S377,341.87,377,343a.48.48,0,0,1-.18.35A.46.46,0,0,1,376.46,343.42Zm-7.7-2,7.24,1c.25-3.77,1.69-26.4.32-30.4-1.23-3.62-12.26-12.45-15.82-15.24.43,1.87,1.15,5.07,1.23,5.7l.06.57c.15,1.24.42,3.56.69,4.63.32,1.26,2.58,6.34,2.61,6.39l4.18,14a.29.29,0,0,1,0,.16Z" style="fill:#263238"></path><path d="M367.7,323.59h-.08a.5.5,0,0,1-.42-.57,15.84,15.84,0,0,1,3.3-7.05.5.5,0,0,1,.71,0,.5.5,0,0,1,0,.7,15,15,0,0,0-3.06,6.55A.49.49,0,0,1,367.7,323.59Z" style="fill:#263238"></path><path d="M321.56,361.56s-1.1,6.46-1.21,7-4.27,5.48-4.93,6.47-2.63,3.5-2.63,3.5l9.42-4.71a36.41,36.41,0,0,0-.43,3.62c0,1,.22,3.29,1.2,2.3s1.32-3.18,1.87-6.36,1.2-12.16,1.2-12.16Z" style="fill:#fff"></path><path d="M322.54,380.49a.85.85,0,0,1-.31-.06c-.86-.36-1-2.2-1-3a24.23,24.23,0,0,1,.29-2.74L313,379a.51.51,0,0,1-.61-.13.48.48,0,0,1,0-.62s2-2.52,2.6-3.48c.27-.4,1-1.37,1.94-2.48a47.07,47.07,0,0,0,2.93-3.85c.1-.49,1.18-6.89,1.19-7a.51.51,0,0,1,.46-.41l4.49-.33a.5.5,0,0,1,.54.53c0,.37-.67,9.05-1.21,12.22l-.09.51c-.52,3.05-.87,5.07-1.91,6.11A1.11,1.11,0,0,1,322.54,380.49Zm-.33-7.16a.47.47,0,0,1,.3.1.5.5,0,0,1,.2.48,34.17,34.17,0,0,0-.43,3.54,5.43,5.43,0,0,0,.3,2l.05,0c.82-.82,1.16-2.82,1.64-5.58l.08-.51c.46-2.66,1-9.51,1.16-11.54L322,362c-.24,1.41-1,6.16-1.14,6.64s-.66,1.16-3.12,4.23c-.84,1.06-1.64,2.05-1.88,2.41s-.82,1.14-1.32,1.81l7.47-3.74A.59.59,0,0,1,322.21,373.33Z" style="fill:#263238"></path><path d="M321.73,314.21s-1.84,3.22-1.69,5.83-.15,43.42-.15,43.42l6.45-.61L332,333.7a22.24,22.24,0,0,0-2.61-10A35.76,35.76,0,0,0,321.73,314.21Z" style="fill:#fff"></path><path d="M319.89,364a.5.5,0,0,1-.34-.13.51.51,0,0,1-.16-.37c0-.41.31-40.83.16-43.39-.16-2.72,1.67-6,1.75-6.11a.52.52,0,0,1,.35-.24.49.49,0,0,1,.4.11,35.68,35.68,0,0,1,7.8,9.67,22.56,22.56,0,0,1,2.66,10.21L326.83,363a.52.52,0,0,1-.45.4l-6.44.61Zm2-48.95a11.55,11.55,0,0,0-1.34,5c.15,2.46-.11,37.81-.14,42.9l5.52-.52,5.6-28.79h0A22.48,22.48,0,0,0,329,324,35.2,35.2,0,0,0,321.88,315Z" style="fill:#263238"></path><path d="M249.58,413.6l1.93,3.33s-15.37,8.07-15.89,9.22-5.5-1.15-5.5-1.15l15.8-9.51Z" style="fill:#4FC671"></path><path d="M234.87,427a15.76,15.76,0,0,1-5-1.52.48.48,0,0,1-.29-.42.5.5,0,0,1,.24-.46l15.81-9.51,3.69-1.9a.49.49,0,0,1,.66.19l1.92,3.33a.53.53,0,0,1,.05.39.5.5,0,0,1-.25.3c-7.19,3.78-15.12,8.22-15.67,9a.93.93,0,0,1-.56.49A1.76,1.76,0,0,1,234.87,427Zm-3.67-2c1.88.78,3.66,1.23,4,1,.49-1.12,10.74-6.62,15.62-9.19l-1.42-2.47-3.24,1.67Z" style="fill:#263238"></path><path d="M210,435.88a.5.5,0,0,1-.21-1c7.2-3.28,19.95-10.29,20.07-10.36a.5.5,0,0,1,.68.2.5.5,0,0,1-.19.68c-.13.07-12.91,7.09-20.15,10.39A.46.46,0,0,1,210,435.88Z" style="fill:#263238"></path><path d="M208.58,438.49a.52.52,0,0,1-.35-.14.49.49,0,0,1,0-.68c.77-.85,19.16-10.54,22.84-12.47a.5.5,0,0,1,.46.88c-8.66,4.55-21.82,11.58-22.57,12.27A.5.5,0,0,1,208.58,438.49Z" style="fill:#263238"></path><path d="M211.8,440.87a.5.5,0,0,1-.28-.91l10.79-7.42-12.18,7a.5.5,0,0,1-.5-.86l22.8-13.07.53.85-20.88,14.34A.47.47,0,0,1,211.8,440.87Z" style="fill:#263238"></path><path d="M215,441a.5.5,0,0,1-.3-.9l18.57-14a.5.5,0,0,1,.7.1.49.49,0,0,1-.1.7l-18.57,14A.47.47,0,0,1,215,441Z" style="fill:#263238"></path><path d="M221.53,442a.45.45,0,0,1-.31-.11.5.5,0,0,1-.08-.7l7.69-9.57-10,9.35a.5.5,0,0,1-.71,0,.51.51,0,0,1,0-.71l15.11-14.09.73.68-12,15A.48.48,0,0,1,221.53,442Z" style="fill:#263238"></path><path d="M225.38,441.51a.54.54,0,0,1-.25-.06.52.52,0,0,1-.19-.69l8.2-14.47a.5.5,0,1,1,.87.49l-8.2,14.48A.5.5,0,0,1,225.38,441.51Z" style="fill:#263238"></path><path d="M228.19,442.28a.43.43,0,0,1-.19,0,.49.49,0,0,1-.26-.66l6.53-15.24a.5.5,0,0,1,.92.39L228.65,442A.49.49,0,0,1,228.19,442.28Z" style="fill:#263238"></path><path d="M232.55,434.07h-.05a32.64,32.64,0,0,1-12.71-2.93,1,1,0,1,1,.93-1.77,31.51,31.51,0,0,0,11.88,2.7,1,1,0,0,1,0,2Z" style="fill:#4FC671"></path><path d="M232.55,434.57h-.08a33.41,33.41,0,0,1-12.92-3,1.5,1.5,0,0,1-.62-2,1.49,1.49,0,0,1,.88-.73,1.5,1.5,0,0,1,1.14.1,30.81,30.81,0,0,0,11.67,2.65,1.5,1.5,0,0,1-.07,3Zm-12.3-4.82-.14,0a.5.5,0,0,0-.09.92,32.18,32.18,0,0,0,12.5,2.88l0,.5v-.5a.5.5,0,0,0,0-1,31.6,31.6,0,0,1-12.08-2.76A.53.53,0,0,0,220.25,429.75Z" style="fill:#263238"></path></g><g id="freepik--character-1--inject-71"><path d="M137.14,299.51l-3.77,40.59,6.51,1.2s7.36-25.35,7.88-29.12a124.55,124.55,0,0,0,.34-12.67Z" style="fill:#fff"></path><path d="M139.88,341.8h-.09l-6.51-1.2a.5.5,0,0,1-.41-.54l3.77-40.6a.5.5,0,0,1,.5-.46h11a.5.5,0,0,1,.5.5,119.32,119.32,0,0,1-.35,12.75c-.51,3.76-7.59,28.16-7.89,29.19A.5.5,0,0,1,139.88,341.8Zm-6-2.1,5.61,1c1-3.37,7.28-25.2,7.74-28.62a114.91,114.91,0,0,0,.35-12.11h-10Z" style="fill:#263238"></path><path d="M134.05,337.19,131.48,343a50.3,50.3,0,0,1,.69,8.05c0,4.28-1,12.67-1,12.67a7.62,7.62,0,0,0,4.28-3.94c1.2-2.91,5.49-19.87,5.49-19.87S137.65,335.65,134.05,337.19Z" style="fill:#fff"></path><path d="M131.14,364.25a.51.51,0,0,1-.49-.57c0-.08,1-8.41,1-12.61a49.69,49.69,0,0,0-.68-8,.52.52,0,0,1,0-.3L133.6,337a.51.51,0,0,1,.26-.26c3.91-1.67,7.3,2.71,7.44,2.9a.48.48,0,0,1,.09.43c-.17.69-4.3,17-5.5,19.94a8.18,8.18,0,0,1-4.59,4.22A.45.45,0,0,1,131.14,364.25Zm.86-21.17a51.5,51.5,0,0,1,.67,8c0,3.45-.67,9.59-.93,11.86a6.84,6.84,0,0,0,3.22-3.32c1.1-2.65,4.87-17.46,5.4-19.55-.64-.75-3.2-3.49-5.93-2.48Z" style="fill:#263238"></path><path d="M132.68,354a.5.5,0,0,1-.3-.9s3.3-2.51,4.1-5.39a.5.5,0,1,1,1,.27c-.89,3.21-4.32,5.81-4.47,5.92A.54.54,0,0,1,132.68,354Z" style="fill:#263238"></path><path d="M59,429.18l-.85,5.66s-3.43,6.68-3.26,7.88,5.14,1.2,7,1.2,5.83-.18,6.34-.52A2.42,2.42,0,0,0,70,440.83c0-2.05-.35-11.3-.35-11.3Z" style="fill:#fff"></path><path d="M61.93,444.42c-5.31,0-7.34-.45-7.51-1.63s2.4-6.43,3.26-8.11l.85-5.57a.52.52,0,0,1,.51-.43l10.62.35a.5.5,0,0,1,.48.48c0,.38.35,9.28.35,11.32a2.75,2.75,0,0,1-1.68,2.85,2,2,0,0,0-.26.14C67.7,444.38,62,444.42,61.93,444.42ZM59.45,429.7l-.79,5.21a.49.49,0,0,1,0,.16c-1.61,3.14-3.3,6.93-3.2,7.58.08.17.81.77,6.52.77A32.56,32.56,0,0,0,68,443l.35-.2c.53-.26,1.13-.55,1.13-1.95,0-1.76-.26-8.91-.33-10.82Zm-1.28,5.14h0Z" style="fill:#263238"></path><path d="M115,431.41l7.71,5.14s5,1.88,5.31,2.57a3.13,3.13,0,0,1-1,2.91c-.69.34-11-.34-12.68-.68s-11-1-12-1a18.52,18.52,0,0,1-2.22-.17,20.24,20.24,0,0,1,.51-7.37C101.68,429.7,112.64,428,115,431.41Z" style="fill:#fff"></path><path d="M125.54,442.62c-3.32,0-10.24-.58-11.28-.78-1.6-.32-10.81-1-11.9-1a18.07,18.07,0,0,1-2.3-.18.5.5,0,0,1-.42-.43,20.61,20.61,0,0,1,.53-7.59c.63-1.89,4-3,6.66-3.4,3-.44,7-.22,8.56,1.82L123,436.1c2.34.89,5.17,2.09,5.53,2.8a3.51,3.51,0,0,1-1.26,3.58A5.73,5.73,0,0,1,125.54,442.62Zm-25-2.92a16.44,16.44,0,0,0,1.77.12c1.14,0,10.39.7,12.09,1s11.49,1,12.39.71a2.94,2.94,0,0,0,.77-2.23,26.44,26.44,0,0,0-5-2.32l-.1,0-7.71-5.14a.53.53,0,0,1-.13-.13c-1.14-1.64-4.67-1.93-7.66-1.49s-5.46,1.58-5.85,2.73A19.23,19.23,0,0,0,100.59,439.7Z" style="fill:#263238"></path><path d="M71.53,319.38,59.36,422l-1.88,1.88L59,429.18l11.82,1.55s2.06-5.14,2.23-7a59.61,59.61,0,0,0-.17-6.17c0-.51,23.3-77.6,23.3-77.6l6,47.63-1.71,46.76s2.74-1.2,5.48-2.22,9.08-.69,9.08-.69-.34-5.48-.17-6.68-1.2-5.65-1.2-5.65l8.22-41.46-1.71-47.45Z" style="fill:#263238"></path><path d="M100.48,434.82a.54.54,0,0,1-.28-.08.48.48,0,0,1-.22-.44l1.71-46.76L96,342.33c-8.09,26.79-22.36,74.12-22.6,75.28,0,.05,0,.37.06.82a42.51,42.51,0,0,1,.12,5.32c-.18,1.93-2.18,6.95-2.26,7.16a.51.51,0,0,1-.53.31L59,429.68a.52.52,0,0,1-.42-.36L57,424a.5.5,0,0,1,.13-.49l1.76-1.76L71,319.32a.5.5,0,0,1,.21-.35.51.51,0,0,1,.4-.08l48.65,10.79a.5.5,0,0,1,.39.47l1.71,47.45a.49.49,0,0,1,0,.12l-8.2,41.33c.25.83,1.35,4.55,1.18,5.75-.13.94.08,5.07.18,6.58a.5.5,0,0,1-.15.38.45.45,0,0,1-.38.15c-.06,0-6.26-.32-8.87.65s-5.43,2.21-5.46,2.22A.48.48,0,0,1,100.48,434.82Zm-4.29-95.39h0a.5.5,0,0,1,.45.43l6,47.62L101,433.55c1-.43,2.9-1.22,4.77-1.92,2.35-.88,7.09-.8,8.73-.74a58.64,58.64,0,0,1-.14-6.23c.12-.79-.66-3.76-1.18-5.44a.49.49,0,0,1,0-.24l8.21-41.4-1.7-47L72,320,59.86,422.05a.47.47,0,0,1-.14.29L58,424l1.37,4.71,11.11,1.45a38.86,38.86,0,0,0,2-6.52,40.4,40.4,0,0,0-.12-5.17c0-.47,0-.82,0-1,0-.51,14.61-48.93,23.32-77.74A.5.5,0,0,1,96.19,339.43ZM59.36,422h0Z" style="fill:#263238"></path><path d="M123.06,242.23s-24.32,3-26.91,6.37-12.82,42.72-12.82,42.72L69.05,320.87s22.47,11.93,33.56,13.31,18.58-.83,18.58-.83L125.63,307,137,287.87l-1.38,13.59h14.14s1.11-23,.28-29.12-5.27-17.2-8-19.42S125.21,242.63,123.06,242.23Z" style="fill:#4FC671"></path><path d="M109.92,335.14a58.65,58.65,0,0,1-7.37-.46c-11.06-1.38-32.81-12.88-33.73-13.37a.5.5,0,0,1-.22-.66L82.88,291.1c.38-1.52,10.24-39.41,12.87-42.81S120.49,242,123,241.73h.15c2.37.44,16.61,8.75,19.16,10.79,2.94,2.35,7.41,13.77,8.22,19.74s-.23,28.27-.27,29.21a.5.5,0,0,1-.5.48H135.62a.5.5,0,0,1-.38-.17.47.47,0,0,1-.12-.38l1.15-11.34-10.16,17.11-4.42,26.25a.5.5,0,0,1-.35.4A43.68,43.68,0,0,1,109.92,335.14ZM69.71,320.65c3.15,1.64,22.92,11.78,33,13a51.13,51.13,0,0,0,18.08-.74l4.39-26a.49.49,0,0,1,.06-.17l11.37-19.14a.51.51,0,0,1,.59-.22.52.52,0,0,1,.34.53l-1.33,13h13.11c.15-3.33,1-23,.26-28.56-.84-6.17-5.32-17.06-7.86-19.09-2.71-2.16-16.37-10-18.64-10.57-6.77.84-24.48,3.55-26.5,6.16s-9.2,29-12.73,42.55Z" style="fill:#263238"></path><path d="M137,288.37a.51.51,0,0,1-.45-.72l5.17-10.77a.49.49,0,0,1,.66-.23.49.49,0,0,1,.24.66l-3.32,6.92,2.87-3.55a.5.5,0,0,1,.78.63l-5.56,6.87A.51.51,0,0,1,137,288.37Z" style="fill:#263238"></path><path d="M127.41,368.43a2,2,0,0,1-1-.28,2,2,0,0,1-.68-2.75,23.09,23.09,0,1,0-42.88-11.89c0,.6,0,1.2.07,1.8a2,2,0,1,1-4,.31c-.06-.7-.09-1.41-.09-2.11a27.09,27.09,0,1,1,50.31,14A2,2,0,0,1,127.41,368.43Z" style="fill:#949494"></path><path d="M127.41,368.93a2.55,2.55,0,0,1-1.29-.35,2.51,2.51,0,0,1-.85-3.44,22.59,22.59,0,1,0-41.95-11.63c0,.58,0,1.18.07,1.76a2.5,2.5,0,0,1-2.3,2.69,2.52,2.52,0,0,1-2.68-2.3c-.06-.72-.09-1.44-.09-2.15a27.59,27.59,0,1,1,51.23,14.21A2.5,2.5,0,0,1,127.41,368.93Zm-21.5-39a23.59,23.59,0,0,1,20.22,35.74,1.5,1.5,0,0,0,.51,2.06,1.54,1.54,0,0,0,2.06-.51,26.59,26.59,0,1,0-49.38-13.7c0,.68,0,1.38.08,2.07A1.52,1.52,0,0,0,81,357a1.51,1.51,0,0,0,1.39-1.61c-.05-.61-.08-1.23-.08-1.84A23.62,23.62,0,0,1,105.91,329.92Z" style="fill:#263238"></path><path d="M158.79,405.32a.51.51,0,0,1-.43-.23c-.82-1.32-1.34-2-1.35-2.06a.51.51,0,0,1,.11-.7.5.5,0,0,1,.7.12s.55.76,1.39,2.11a.5.5,0,0,1-.16.69A.48.48,0,0,1,158.79,405.32Z" style="fill:#263238"></path><path d="M167.16,425.17a.5.5,0,0,1-.48-.38c-.43-1.71-.94-3.44-1.52-5.14a.52.52,0,0,1,.32-.64.5.5,0,0,1,.63.32c.59,1.73,1.1,3.49,1.54,5.22a.51.51,0,0,1-.36.61Zm-3.44-10.24a.49.49,0,0,1-.46-.3c-.7-1.65-1.46-3.29-2.27-4.87a.5.5,0,1,1,.89-.45c.82,1.6,1.59,3.26,2.3,4.93a.49.49,0,0,1-.27.65A.43.43,0,0,1,163.72,414.93Z" style="fill:#263238"></path><path d="M168.61,433a.5.5,0,0,1-.49-.44c-.1-.83-.22-1.65-.35-2.46a.5.5,0,0,1,.41-.57.51.51,0,0,1,.58.41c.13.82.25,1.65.35,2.5a.5.5,0,0,1-.44.55Z" style="fill:#263238"></path><path d="M165.05,400.73a.51.51,0,0,1-.39-.18,17.6,17.6,0,0,0-1.64-1.78.5.5,0,0,1,0-.71.49.49,0,0,1,.7,0,19.62,19.62,0,0,1,1.74,1.88.49.49,0,0,1-.06.7A.51.51,0,0,1,165.05,400.73Z" style="fill:#263238"></path><path d="M169.15,406.9a.51.51,0,0,1-.45-.27c-.57-1.08-1.19-2.14-1.86-3.15a.5.5,0,0,1,.83-.55,37.13,37.13,0,0,1,1.92,3.23.51.51,0,0,1-.21.68A.46.46,0,0,1,169.15,406.9Z" style="fill:#263238"></path><path d="M171.58,412.61a.49.49,0,0,1-.47-.34c-.26-.78-.55-1.56-.86-2.32a.5.5,0,0,1,.93-.38c.32.78.61,1.58.88,2.38a.5.5,0,0,1-.32.63A.41.41,0,0,1,171.58,412.61Z" style="fill:#263238"></path><path d="M168.33,392.62a.52.52,0,0,1-.33-.12,15.8,15.8,0,0,0-1.92-1.44.5.5,0,0,1-.18-.68.49.49,0,0,1,.68-.18,14.42,14.42,0,0,1,2.07,1.54.5.5,0,0,1-.32.88Z" style="fill:#263238"></path><path d="M172.06,396.75a.52.52,0,0,1-.41-.22,21.74,21.74,0,0,0-1.7-2.13.5.5,0,0,1,0-.71.49.49,0,0,1,.7,0,21.21,21.21,0,0,1,1.78,2.23.5.5,0,0,1-.12.7A.52.52,0,0,1,172.06,396.75Z" style="fill:#263238"></path><path d="M174.56,401.41a.5.5,0,0,1-.47-.32,21,21,0,0,0-1-2.22.5.5,0,1,1,.88-.47,21.13,21.13,0,0,1,1.06,2.33.51.51,0,0,1-.28.65Z" style="fill:#263238"></path><path d="M122.27,372.4l7.4,10.79,34.89,5.28a22.63,22.63,0,0,1-2.94,8c-2.05,3.07-7.42,5.13-7.42,5.13l-4-10.57-45.25-4.44Z" style="fill:#949494"></path><path d="M154.2,402.08a.45.45,0,0,1-.2,0,.53.53,0,0,1-.27-.28l-3.91-10.28-44.94-4.41a.5.5,0,0,1-.43-.36.51.51,0,0,1,.16-.53L122,372a.5.5,0,0,1,.39-.1.48.48,0,0,1,.34.21l7.28,10.6L164.63,388a.49.49,0,0,1,.42.57,22.77,22.77,0,0,1-3,8.18c-2.12,3.16-7.44,5.23-7.66,5.32Zm-48-15.89,44,4.32a.5.5,0,0,1,.42.32l3.83,10.09c1.33-.57,5.13-2.36,6.72-4.75a21.68,21.68,0,0,0,2.78-7.28l-34.38-5.21a.51.51,0,0,1-.34-.21l-7.09-10.34Z" style="fill:#263238"></path><path d="M143.32,390.34l6.86.67,4,10.57s5.37-2.06,7.42-5.13a22.63,22.63,0,0,0,2.94-8l-20-3Z" style="fill:#263238"></path><path d="M154.2,402.08a.45.45,0,0,1-.2,0,.53.53,0,0,1-.27-.28l-3.91-10.28-6.55-.65a.47.47,0,0,1-.36-.21.5.5,0,0,1-.08-.41l1.27-4.89a.5.5,0,0,1,.56-.37l20,3a.49.49,0,0,1,.42.57,22.77,22.77,0,0,1-3,8.18c-2.12,3.16-7.44,5.23-7.66,5.32ZM144,389.89l6.28.62a.5.5,0,0,1,.42.32l3.83,10.09c1.33-.57,5.13-2.36,6.72-4.75a21.68,21.68,0,0,0,2.78-7.28L145,386Z" style="fill:#263238"></path><path d="M103.47,334.56l-28.3,20.65a1.89,1.89,0,0,0-.41,2.65l23.32,31.81a1.89,1.89,0,0,0,2.67.38l29.08-22.19a1.89,1.89,0,0,0,.33-2.68l-24.1-30.27A1.9,1.9,0,0,0,103.47,334.56Z" style="fill:#949494"></path><path d="M99.61,390.94l-.34,0a2.4,2.4,0,0,1-1.59-1L74.35,358.15a2.4,2.4,0,0,1,.52-3.34l28.3-20.65a2.38,2.38,0,0,1,3.28.44l24.1,30.27a2.4,2.4,0,0,1-.42,3.39l-29.07,22.19A2.41,2.41,0,0,1,99.61,390.94Zm5-56.24a1.41,1.41,0,0,0-.82.27h0l-28.3,20.65a1.39,1.39,0,0,0-.3,1.94l23.33,31.81a1.37,1.37,0,0,0,.92.55,1.35,1.35,0,0,0,1-.27l29.08-22.19a1.31,1.31,0,0,0,.53-.93,1.4,1.4,0,0,0-.29-1l-24.1-30.27A1.41,1.41,0,0,0,104.58,334.7Zm-1.11-.14h0Z" style="fill:#263238"></path><path d="M159.73,236.65s-2,5.77-2.79,7.25-4.47,1.49-4.84,3.73.37,3.91-.38,4.65-3,.56-3,.56-5,4.28-6.7,5-6-1.86-6-1.86,1.86,2.24-1.3,3.17-6.89.55-10.43-6.33-1.3-10.61-1.3-10.61,3.91-.19,4.84-1.12a35.11,35.11,0,0,0,3-4.65s2.42-7.44,6.33-8.75,15.82.93,19,1.86S159.73,236.65,159.73,236.65Z" style="fill:#fff"></path><path d="M132.42,260c-3.34,0-6.09-2.27-8.5-7-3.62-7.06-1.38-10.94-1.29-11.1a.52.52,0,0,1,.41-.24c1.54-.07,4-.42,4.51-1a32.65,32.65,0,0,0,2.89-4.54c.07-.23,2.51-7.62,6.61-9s16.57,1.06,19.28,1.85c3.46,1,3.88,7.26,3.9,7.53a.63.63,0,0,1,0,.19c-.09.24-2.07,5.82-2.82,7.32a4.25,4.25,0,0,1-2.36,1.62c-1.16.49-2.26,1-2.43,2a10.76,10.76,0,0,0-.06,2.51c.07,1,.12,1.84-.45,2.41-.77.77-2.49.76-3.16.72-.89.74-5.1,4.27-6.67,5-1.29.57-3.65-.42-5.13-1.18a1.94,1.94,0,0,1-.07.82,2.81,2.81,0,0,1-2.12,1.69A9.11,9.11,0,0,1,132.42,260Zm-9-17.32c-.37.88-1.44,4.31,1.43,9.9,3.55,6.91,7.12,6.88,9.84,6.08.57-.17,1.28-.48,1.45-1a1.71,1.71,0,0,0-.39-1.35.49.49,0,0,1,.64-.74c1.57.95,4.45,2.29,5.49,1.83,1.59-.71,6.53-4.91,6.58-5a.49.49,0,0,1,.37-.12,4.34,4.34,0,0,0,2.58-.41c.25-.26.21-.87.16-1.65a12.34,12.34,0,0,1,.07-2.74c.26-1.54,1.73-2.16,3-2.71.83-.35,1.61-.68,1.85-1.15.67-1.34,2.46-6.33,2.73-7.1-.06-.77-.58-5.77-3.17-6.53-3.21-.94-15-3.11-18.68-1.86s-6,8.35-6,8.42a33,33,0,0,1-3.1,4.86C127.34,242.38,124.47,242.64,123.38,242.71Z" style="fill:#263238"></path><path d="M134.15,239.8s-.67-.36-1-2.6,1.12-7.07,4.84-5.58,1.12,4.28,1.12,4.28l-.93,2.23s3.16,1.87,3.16.56.19-3.16.75-3.16,1.86.93,2.6-.37,5.77-2.61,5.77-2.61l-3.54,4.28s-.18.37,4.84,0,6.89-2.79,6.89-2.79l-6,5a18.81,18.81,0,0,0,5.77-1.31c2.42-1.11,3.17-1.3,3.54-5.95s-3.91-9.68-8.56-11.54-12.28-3.72-16.94-.19a19.21,19.21,0,0,0-6.88,13.4c0,3.35-1.12,4.1.18,5.21A4,4,0,0,0,134.15,239.8Z" style="fill:#263238"></path><path d="M132.6,240.52a4.52,4.52,0,0,1-3.16-1.45c-1-.86-.86-1.66-.66-2.76a14,14,0,0,0,.3-2.83,19.78,19.78,0,0,1,7.08-13.8c5.33-4.05,14-1.26,17.42.12,4.59,1.84,9.29,7,8.88,12-.37,4.58-1.1,5.11-3.59,6.26l-.24.11a18.8,18.8,0,0,1-5.95,1.34.49.49,0,0,1-.49-.31.51.51,0,0,1,.14-.57l2.12-1.78a14.86,14.86,0,0,1-2.69.43c-4.91.36-5.11.07-5.29-.2a.54.54,0,0,1,0-.52.33.33,0,0,1,.06-.1l2.5-3c-1.74.56-3.58,1.33-3.91,1.92a2,2,0,0,1-2.65.72l-.29-.08a7.25,7.25,0,0,0-.35,2.64.92.92,0,0,1-.44.83c-.85.48-2.71-.51-3.48-1a.51.51,0,0,1-.2-.63l.93-2.23a.38.38,0,0,1,.09-.15,2.66,2.66,0,0,0,.72-2c-.13-.59-.69-1.09-1.65-1.48a2.42,2.42,0,0,0-2.56.27,5.82,5.82,0,0,0-1.6,4.77c.3,1.85.81,2.25.81,2.26a.48.48,0,0,1,.25.49.51.51,0,0,1-.39.41A6.63,6.63,0,0,1,132.6,240.52Zm10.7-21.92a10.61,10.61,0,0,0-6.53,1.88,18.6,18.6,0,0,0-6.69,13,15.05,15.05,0,0,1-.31,3c-.21,1.1-.24,1.35.32,1.82a3.44,3.44,0,0,0,3.18,1.16,7.33,7.33,0,0,1-.65-2.18,6.8,6.8,0,0,1,2-5.72,3.38,3.38,0,0,1,3.56-.41,3.28,3.28,0,0,1,2.26,2.19,3.56,3.56,0,0,1-.9,2.82l-.73,1.75a5.4,5.4,0,0,0,2,.74c0-2.42.43-3.63,1.25-3.63a2.39,2.39,0,0,1,.69.15c.76.24,1.16.29,1.48-.27.81-1.42,5.2-2.62,6.08-2.84a.48.48,0,0,1,.54.21.51.51,0,0,1,0,.59l-3,3.62c.62,0,1.76,0,3.88-.16a11.18,11.18,0,0,0,5.36-1.63l1.24-1a.49.49,0,0,1,.67,0,.52.52,0,0,1,0,.67,6.43,6.43,0,0,1-1.41,1.19l-3.37,2.85a15.21,15.21,0,0,0,4-1.08l.24-.11c2.16-1,2.68-1.23,3-5.43.37-4.63-4-9.34-8.25-11A29.05,29.05,0,0,0,143.3,218.6Z" style="fill:#263238"></path><path d="M145.66,254a.51.51,0,0,1-.28-.09,4.64,4.64,0,0,1-1.78-4.12.49.49,0,0,1,.54-.45.5.5,0,0,1,.45.55,3.74,3.74,0,0,0,1.35,3.2.5.5,0,0,1,.14.69A.52.52,0,0,1,145.66,254Z" style="fill:#263238"></path><path d="M153.59,245.15a.49.49,0,0,1-.45-.28c-.92-1.83-3.24-1.25-3.34-1.23a.5.5,0,1,1-.25-1,3.84,3.84,0,0,1,4.48,1.75.49.49,0,0,1-.22.67A.59.59,0,0,1,153.59,245.15Z" style="fill:#263238"></path><path d="M136.09,256a29.85,29.85,0,0,1-2.41-5.42,11.55,11.55,0,0,1-.45-4.58s-3.82,9.31-4.43,9.46-3.51-.91-3.51-.91,2.41,5.14,6,4.88,4.58-.46,5-1.07S136.09,256,136.09,256Z" style="fill:#263238"></path><path d="M131,259.94c-3.68,0-6-5-6.14-5.18a.5.5,0,0,1,.62-.68,16.93,16.93,0,0,0,3.13.9,84.58,84.58,0,0,0,4.17-9.17.5.5,0,0,1,1,.27,11.21,11.21,0,0,0,.44,4.36,29.55,29.55,0,0,0,2.36,5.31.3.3,0,0,1,0,.08c.17.47.69,2.06.12,2.83s-1.75,1-5.4,1.27Zm-4.61-4.49c.89,1.41,2.65,3.64,4.83,3.48,3.35-.25,4.35-.43,4.68-.87a3.25,3.25,0,0,0-.24-1.85,28.06,28.06,0,0,1-2.44-5.49,12.86,12.86,0,0,1-.45-2.26c-3.07,7.3-3.57,7.42-3.83,7.49A7.06,7.06,0,0,1,126.37,255.45Z" style="fill:#263238"></path><path d="M85.44,271.25s-4.68,20.47-4.1,20.86,22.42,28.46,22.42,28.46,2.54,7.8,2.93,9,0,3.51,1.36,3.9,5.07,1.95,8,1.75,3.32-1.75,3.32-1.75a14.13,14.13,0,0,0,1,3.51c.59,1,2.15,1.17,2.54-.78s.78-5.27.78-5.27-2.15-6-3.32-8.18-8.57-7-8.57-7L94,288.21l4.09-10.33Z" style="fill:#fff"></path><path d="M121.52,338.16a1.93,1.93,0,0,1-1.62-1,9.47,9.47,0,0,1-.82-2.54,5,5,0,0,1-3,1c-2.44.16-5.36-.83-7.11-1.43l-1.06-.34c-1.26-.36-1.4-1.81-1.51-3a5.49,5.49,0,0,0-.19-1.24c-.36-1.1-2.62-8.05-2.9-8.89C94.72,309.76,81.73,293.15,81,292.49c-.31-.2-.84-.55,3.92-21.35a.52.52,0,0,1,.28-.35.49.49,0,0,1,.44,0l12.67,6.62a.49.49,0,0,1,.23.63l-4,10.09,17.55,27.19c.89.59,7.49,5,8.65,7.14a86.55,86.55,0,0,1,3.35,8.26.55.55,0,0,1,0,.22c0,.14-.39,3.36-.78,5.3-.3,1.5-1.2,1.82-1.57,1.88A1.23,1.23,0,0,1,121.52,338.16Zm-2.16-5.22h0a.5.5,0,0,1,.46.42,13.06,13.06,0,0,0,.91,3.33.92.92,0,0,0,.86.47c.36-.07.63-.46.76-1.09.34-1.71.68-4.51.76-5.11a84.65,84.65,0,0,0-3.25-8c-.91-1.66-6.38-5.5-8.41-6.83a.4.4,0,0,1-.14-.15L93.6,288.48a.5.5,0,0,1,0-.46l3.93-9.91L85.78,272c-1.66,7.29-4.06,18.47-4,19.87,1.8,2,16.09,20.33,22.37,28.4a.8.8,0,0,1,.08.16s2.53,7.79,2.92,9a6.84,6.84,0,0,1,.24,1.47c.11,1.13.23,1.95.79,2.11.28.08.65.2,1.1.36,1.68.57,4.49,1.53,6.72,1.37,2.47-.16,2.85-1.33,2.87-1.38A.5.5,0,0,1,119.36,332.94Zm-37.56-41h0Zm-.18-.24.12.11Z" style="fill:#263238"></path><path d="M118.07,320.34,116.35,319c-2.26-1.72-4.59-3.26-4.59-3.26l-.65-1c-2.34,1.62-5.65,3.89-7.78,5.31l.43.56s2.54,7.8,2.93,9,0,3.51,1.36,3.9,5.07,1.95,8,1.75,3.32-1.75,3.32-1.75a14.13,14.13,0,0,0,1,3.51c.59,1,2.15,1.17,2.54-.78s.78-5.27.78-5.27-2.15-6-3.32-8.18A10.71,10.71,0,0,0,118.07,320.34Z" style="fill:#fff"></path><path d="M121.52,338.16a1.93,1.93,0,0,1-1.62-1,9.47,9.47,0,0,1-.82-2.54,5,5,0,0,1-3,1c-2.44.16-5.36-.83-7.11-1.43l-1.06-.34c-1.26-.36-1.4-1.81-1.51-3a5.49,5.49,0,0,0-.19-1.24c-.36-1.1-2.62-8.05-2.9-8.89l-.38-.49a.54.54,0,0,1-.1-.39.51.51,0,0,1,.22-.33c2.12-1.42,5.4-3.67,7.78-5.31a.47.47,0,0,1,.38-.08.52.52,0,0,1,.32.22l.59.91c.45.3,2.54,1.7,4.53,3.23l1.73,1.38h0a10.72,10.72,0,0,1,2.38,2.52,86.55,86.55,0,0,1,3.35,8.26.55.55,0,0,1,0,.22c0,.14-.39,3.36-.78,5.3-.3,1.5-1.2,1.82-1.57,1.88A1.23,1.23,0,0,1,121.52,338.16Zm-2.16-5.22h0a.5.5,0,0,1,.46.42,13.06,13.06,0,0,0,.91,3.33.92.92,0,0,0,.86.47c.36-.07.63-.46.76-1.09.34-1.71.68-4.51.76-5.11a84.65,84.65,0,0,0-3.25-8,9.36,9.36,0,0,0-2.14-2.22L116,319.35c-2.21-1.69-4.54-3.22-4.56-3.23a.4.4,0,0,1-.14-.15l-.37-.57c-2.17,1.5-4.93,3.4-6.92,4.73l.11.13a.8.8,0,0,1,.08.16s2.53,7.79,2.92,9a6.84,6.84,0,0,1,.24,1.47c.11,1.13.23,1.95.79,2.11.28.08.65.2,1.1.36,1.68.57,4.49,1.53,6.72,1.37,2.47-.16,2.85-1.33,2.87-1.38A.5.5,0,0,1,119.36,332.94Z" style="fill:#263238"></path><path d="M104.54,245.91s-8.58-.39-12.08,3.5-9.75,22.81-9.75,22.81l16,8.78,6.83-21.45" style="fill:#4FC671"></path><path d="M98.69,281.5a.44.44,0,0,1-.24-.07l-16-8.77a.5.5,0,0,1-.24-.59c.26-.78,6.31-19.06,9.85-23s12.13-3.69,12.49-3.67a.49.49,0,0,1,.47.52.51.51,0,0,1-.52.48c-.08,0-8.38-.34-11.69,3.34-3.13,3.47-8.6,19.51-9.52,22.24l15.09,8.28L105,259.4a.5.5,0,0,1,.63-.32.49.49,0,0,1,.32.62l-6.82,21.45a.5.5,0,0,1-.29.31A.58.58,0,0,1,98.69,281.5Z" style="fill:#263238"></path><path d="M151.14,247.78a3.7,3.7,0,0,1-3.07-2.12.5.5,0,0,1,.91-.42,2.65,2.65,0,0,0,2.31,1.53.51.51,0,0,1,.53.47.5.5,0,0,1-.46.53Z" style="fill:#263238"></path></g></svg>
